M48
; DRILL file {KiCad 9.0.4} date 2026-01-09T16:44:38-0600
; FORMAT={-:-/ absolute / metric / decimal}
; #@! TF.CreationDate,2026-01-09T16:44:38-06:00
; #@! TF.GenerationSoftware,Kicad,Pcbnew,9.0.4
; #@! TF.FileFunction,Plated,1,2,PTH
FMAT,2
METRIC
; #@! TA.AperFunction,Plated,PTH,ViaDrill
T1C0.300
; #@! TA.AperFunction,Plated,PTH,ComponentDrill
T2C0.500
; #@! TA.AperFunction,Plated,PTH,ComponentDrill
T3C0.600
; #@! TA.AperFunction,Plated,PTH,ComponentDrill
T4C1.000
; #@! TA.AperFunction,Plated,PTH,ComponentDrill
T5C3.000
; #@! TA.AperFunction,Plated,PTH,ComponentDrill
T6C3.048
%
G90
G05
T1
X7.94Y-70.2
X27.6Y-70.0
X35.814Y-47.244
X42.8Y-70.0
X43.231Y-47.244
X56.032Y-47.371
X61.265Y-47.371
X61.7Y-69.9
X75.844Y-47.295
X80.5Y-69.9
X83.464Y-47.295
X99.0Y-70.0
X118.8Y-69.8
X138.4Y-70.2
X157.0Y-70.2
X176.2Y-70.2
X187.833Y-47.244
X194.6Y-70.6
X197.84Y-47.244
X213.1Y-70.5
X217.49Y-48.2
X226.441Y-66.294
X233.2Y-70.2
X234.34Y-66.294
X236.54Y-48.0
X248.285Y-70.2
X251.75Y-51.75
X252.6Y-44.6
X253.2Y-43.8
X254.156Y-44.266
X254.6Y-43.6
X255.192Y-42.808
X256.8Y-49.6
X258.0Y-50.2
X258.086Y-37.514
X258.944Y-50.105
X260.036Y-49.861
X261.0Y-44.5
X261.493Y-40.132
X262.744Y-52.256
X262.827Y-53.404
X264.0Y-40.0
X264.477Y-53.023
X264.922Y-50.292
X266.0Y-70.2
X266.699Y-49.499
X268.309Y-45.043
X268.35Y-40.325
X268.986Y-43.35
X269.621Y-45.466
X270.154Y-37.236
X271.78Y-104.521
X271.942Y-44.954
X271.942Y-46.2
X273.05Y-42.926
X273.431Y-41.021
X273.812Y-51.562
X274.32Y-52.07
X274.828Y-52.578
X275.336Y-53.086
X275.59Y-66.294
X276.669Y-48.704
X277.178Y-49.212
X277.685Y-49.721
X278.193Y-50.228
X278.765Y-85.344
X278.8Y-40.2
X281.9Y-37.1
X282.956Y-123.571
X284.09Y-41.7
X284.8Y-34.9
X288.75Y-51.5
X292.45Y-38.6
X292.608Y-123.571
X292.735Y-104.394
X292.862Y-66.294
X292.862Y-85.344
X293.69Y-70.2
X294.075Y-39.375
X295.3Y-42.25
X296.65Y-38.6
T2
X279.575Y-35.675
X279.575Y-37.7
T4
X254.26Y-35.5
X256.8Y-35.5
X259.34Y-35.5
X261.88Y-35.5
X295.5Y-51.5
X298.04Y-51.5
X300.4Y-39.4
X300.4Y-41.94
X300.4Y-44.48
X300.4Y-47.02
X300.58Y-51.5
X303.12Y-51.5
T5
X7.94Y-41.86
X7.94Y-60.91
X10.321Y-137.11
X12.702Y-79.96
X14.29Y-39.32
X14.29Y-58.37
X15.084Y-99.01
X16.671Y-134.57
X19.052Y-77.42
X19.846Y-118.06
X21.434Y-96.47
X26.196Y-115.52
X26.99Y-41.86
X26.99Y-60.91
X33.34Y-39.32
X33.34Y-58.37
X34.134Y-137.11
X36.515Y-79.96
X40.484Y-134.57
X41.277Y-99.01
X42.865Y-77.42
X46.04Y-41.86
X46.04Y-60.91
X47.627Y-96.47
X50.802Y-118.06
X52.39Y-39.32
X52.39Y-58.37
X55.565Y-79.96
X57.152Y-115.52
X57.946Y-137.11
X60.328Y-99.01
X61.915Y-77.42
X64.296Y-134.57
X65.09Y-41.86
X65.09Y-60.91
X66.677Y-96.47
X69.852Y-118.06
X71.44Y-39.32
X71.44Y-58.37
X74.615Y-79.96
X76.203Y-115.52
X79.377Y-99.01
X80.965Y-77.42
X84.14Y-41.86
X84.14Y-60.91
X85.727Y-96.47
X88.902Y-118.06
X90.49Y-39.32
X90.49Y-58.37
X93.665Y-79.96
X95.252Y-115.52
X98.427Y-99.01
X100.015Y-77.42
X103.19Y-41.86
X103.19Y-60.91
X104.777Y-96.47
X107.953Y-118.06
X109.54Y-39.32
X109.54Y-58.37
X112.715Y-79.96
X114.302Y-115.52
X117.477Y-99.01
X119.065Y-77.42
X122.24Y-41.86
X122.24Y-60.91
X123.828Y-96.47
X127.002Y-118.06
X128.59Y-39.32
X128.59Y-58.37
X129.384Y-137.11
X131.765Y-79.96
X133.352Y-115.52
X135.734Y-134.57
X136.528Y-99.01
X138.115Y-77.42
X141.29Y-41.86
X141.29Y-60.91
X142.877Y-96.47
X146.052Y-118.06
X147.64Y-39.32
X147.64Y-58.37
X150.815Y-79.96
X152.403Y-115.52
X155.577Y-99.01
X157.165Y-77.42
X160.34Y-41.86
X160.34Y-60.91
X161.927Y-96.47
X165.102Y-118.06
X166.69Y-39.32
X166.69Y-58.37
X169.865Y-79.96
X171.452Y-115.52
X174.627Y-99.01
X176.215Y-77.42
X179.39Y-41.86
X179.39Y-60.91
X180.977Y-96.47
X184.153Y-118.06
X185.74Y-39.32
X185.74Y-58.37
X188.915Y-79.96
X190.502Y-115.52
X193.677Y-99.01
X195.265Y-77.42
X198.44Y-41.86
X198.44Y-60.91
X198.44Y-137.11
X200.028Y-96.47
X203.202Y-118.06
X204.79Y-39.32
X204.79Y-58.37
X204.79Y-134.57
X207.965Y-79.96
X209.552Y-115.52
X212.727Y-99.01
X214.315Y-77.42
X217.49Y-41.86
X217.49Y-60.91
X217.49Y-137.11
X219.077Y-96.47
X222.252Y-118.06
X223.84Y-39.32
X223.84Y-58.37
X223.84Y-134.57
X227.015Y-79.96
X228.602Y-115.52
X231.778Y-99.01
X233.365Y-77.42
X236.54Y-41.86
X236.54Y-60.91
X236.54Y-137.11
X238.127Y-96.47
X242.89Y-39.32
X242.89Y-58.37
X242.89Y-134.57
X246.065Y-79.96
X248.446Y-118.06
X252.415Y-77.42
X254.796Y-115.52
X255.59Y-137.11
X261.94Y-134.57
X262.734Y-99.01
X265.115Y-60.91
X269.084Y-96.47
X269.877Y-79.96
X271.465Y-58.37
X274.64Y-118.06
X274.64Y-137.11
X276.227Y-77.42
X280.99Y-115.52
X280.99Y-134.57
X293.69Y-60.91
X293.69Y-79.96
X293.69Y-99.01
X293.69Y-118.06
X293.69Y-137.11
X300.04Y-58.37
X300.04Y-77.42
X300.04Y-96.47
X300.04Y-115.52
X300.04Y-134.57
T6
X11.747Y-113.589
X35.56Y-113.589
X83.188Y-132.665
X183.2Y-132.665
X254.641Y-94.542
X256.959Y-56.439
X278.454Y-94.542
X280.772Y-56.439
T3
G00X290.23Y-35.695
M15
G01X290.23Y-36.495
M16
G05
G00X290.23Y-39.725
M15
G01X290.23Y-40.825
M16
G05
G00X298.87Y-35.695
M15
G01X298.87Y-36.495
M16
G05
G00X298.87Y-39.725
M15
G01X298.87Y-40.825
M16
G05
M30
