%TF.GenerationSoftware,KiCad,Pcbnew,9.0.4*%
%TF.CreationDate,2026-01-09T16:44:30-06:00*%
%TF.ProjectId,Keyboard,4b657962-6f61-4726-942e-6b696361645f,rev?*%
%TF.SameCoordinates,Original*%
%TF.FileFunction,Soldermask,Bot*%
%TF.FilePolarity,Negative*%
%FSLAX46Y46*%
G04 Gerber Fmt 4.6, Leading zero omitted, Abs format (unit mm)*
G04 Created by KiCad (PCBNEW 9.0.4) date 2026-01-09 16:44:30*
%MOMM*%
%LPD*%
G01*
G04 APERTURE LIST*
G04 Aperture macros list*
%AMRoundRect*
0 Rectangle with rounded corners*
0 $1 Rounding radius*
0 $2 $3 $4 $5 $6 $7 $8 $9 X,Y pos of 4 corners*
0 Add a 4 corners polygon primitive as box body*
4,1,4,$2,$3,$4,$5,$6,$7,$8,$9,$2,$3,0*
0 Add four circle primitives for the rounded corners*
1,1,$1+$1,$2,$3*
1,1,$1+$1,$4,$5*
1,1,$1+$1,$6,$7*
1,1,$1+$1,$8,$9*
0 Add four rect primitives between the rounded corners*
20,1,$1+$1,$2,$3,$4,$5,0*
20,1,$1+$1,$4,$5,$6,$7,0*
20,1,$1+$1,$6,$7,$8,$9,0*
20,1,$1+$1,$8,$9,$2,$3,0*%
G04 Aperture macros list end*
%ADD10R,1.000000X1.000000*%
%ADD11C,4.000000*%
%ADD12C,3.987800*%
%ADD13C,3.200000*%
%ADD14R,1.700000X1.700000*%
%ADD15C,1.700000*%
%ADD16C,1.400000*%
%ADD17RoundRect,0.225000X0.375000X-0.225000X0.375000X0.225000X-0.375000X0.225000X-0.375000X-0.225000X0*%
%ADD18C,1.750000*%
%ADD19C,3.300000*%
%ADD20RoundRect,0.250000X1.025000X1.000000X-1.025000X1.000000X-1.025000X-1.000000X1.025000X-1.000000X0*%
%ADD21R,2.000000X2.000000*%
%ADD22RoundRect,0.237500X-0.300000X-0.237500X0.300000X-0.237500X0.300000X0.237500X-0.300000X0.237500X0*%
%ADD23RoundRect,0.237500X0.250000X0.237500X-0.250000X0.237500X-0.250000X-0.237500X0.250000X-0.237500X0*%
%ADD24RoundRect,0.237500X0.287500X0.237500X-0.287500X0.237500X-0.287500X-0.237500X0.287500X-0.237500X0*%
%ADD25RoundRect,0.237500X0.300000X0.237500X-0.300000X0.237500X-0.300000X-0.237500X0.300000X-0.237500X0*%
%ADD26RoundRect,0.200000X-0.200000X-0.800000X0.200000X-0.800000X0.200000X0.800000X-0.200000X0.800000X0*%
%ADD27C,0.650000*%
%ADD28RoundRect,0.150000X-0.150000X-0.425000X0.150000X-0.425000X0.150000X0.425000X-0.150000X0.425000X0*%
%ADD29RoundRect,0.075000X-0.075000X-0.500000X0.075000X-0.500000X0.075000X0.500000X-0.075000X0.500000X0*%
%ADD30O,1.000000X1.800000*%
%ADD31O,1.000000X2.100000*%
%ADD32RoundRect,0.237500X0.237500X-0.300000X0.237500X0.300000X-0.237500X0.300000X-0.237500X-0.300000X0*%
%ADD33RoundRect,0.237500X-0.250000X-0.237500X0.250000X-0.237500X0.250000X0.237500X-0.250000X0.237500X0*%
%ADD34RoundRect,0.150000X0.150000X-0.512500X0.150000X0.512500X-0.150000X0.512500X-0.150000X-0.512500X0*%
%ADD35RoundRect,0.237500X-0.237500X0.300000X-0.237500X-0.300000X0.237500X-0.300000X0.237500X0.300000X0*%
%ADD36RoundRect,0.237500X0.237500X-0.250000X0.237500X0.250000X-0.237500X0.250000X-0.237500X-0.250000X0*%
%ADD37RoundRect,0.200000X0.200000X0.800000X-0.200000X0.800000X-0.200000X-0.800000X0.200000X-0.800000X0*%
%ADD38RoundRect,0.218750X0.218750X0.256250X-0.218750X0.256250X-0.218750X-0.256250X0.218750X-0.256250X0*%
%ADD39RoundRect,0.093750X-0.093750X0.156250X-0.093750X-0.156250X0.093750X-0.156250X0.093750X0.156250X0*%
%ADD40RoundRect,0.075000X-0.075000X0.250000X-0.075000X-0.250000X0.075000X-0.250000X0.075000X0.250000X0*%
%ADD41RoundRect,0.075000X0.075000X-0.662500X0.075000X0.662500X-0.075000X0.662500X-0.075000X-0.662500X0*%
%ADD42RoundRect,0.075000X0.662500X-0.075000X0.662500X0.075000X-0.662500X0.075000X-0.662500X-0.075000X0*%
G04 APERTURE END LIST*
D10*
%TO.C,TP24*%
X279575000Y-37700000D03*
%TD*%
%TO.C,TP23*%
X279575000Y-35675000D03*
%TD*%
D11*
%TO.C,S4*%
X83187500Y-132665000D03*
D12*
X83187500Y-147905000D03*
D11*
X183200000Y-132665000D03*
D12*
X183200000Y-147905000D03*
%TD*%
D13*
%TO.C,H7*%
X250500000Y-45500000D03*
%TD*%
D14*
%TO.C,J2*%
X261880000Y-35500000D03*
D15*
X259340000Y-35500000D03*
X256800000Y-35500000D03*
X254260000Y-35500000D03*
%TD*%
D11*
%TO.C,S2*%
X256959100Y-56438800D03*
D12*
X256959100Y-71678800D03*
D11*
X280771600Y-56438800D03*
D12*
X280771600Y-71678800D03*
%TD*%
D13*
%TO.C,H2*%
X96000000Y-147500000D03*
%TD*%
D11*
%TO.C,S1*%
X254641350Y-94541850D03*
D12*
X254641350Y-109781850D03*
D11*
X278453850Y-94541850D03*
D12*
X278453850Y-109781850D03*
%TD*%
D13*
%TO.C,H1*%
X4250000Y-94750000D03*
%TD*%
%TO.C,H5*%
X21000000Y-53750000D03*
%TD*%
%TO.C,H4*%
X303500000Y-37000000D03*
%TD*%
D16*
%TO.C,OL1*%
X300400000Y-47020000D03*
X300400000Y-44480000D03*
X300400000Y-41940000D03*
X300400000Y-39400000D03*
%TD*%
D13*
%TO.C,H3*%
X154750000Y-54000000D03*
%TD*%
D14*
%TO.C,J3*%
X303120000Y-51500000D03*
D15*
X300580000Y-51500000D03*
X298040000Y-51500000D03*
X295500000Y-51500000D03*
%TD*%
D11*
%TO.C,S3*%
X11747500Y-113588800D03*
D12*
X11747500Y-128828800D03*
D11*
X35560000Y-113588800D03*
D12*
X35560000Y-128828800D03*
%TD*%
D13*
%TO.C,H6*%
X173500000Y-147500000D03*
%TD*%
D17*
%TO.C,D70*%
X255356250Y-123500000D03*
X255356250Y-120200000D03*
%TD*%
D18*
%TO.C,MX29*%
X21592500Y-82500000D03*
D12*
X16512500Y-82500000D03*
D18*
X11432500Y-82500000D03*
D19*
X12702500Y-79960000D03*
D20*
X9152500Y-79960000D03*
X22602500Y-77420000D03*
D19*
X19052500Y-77420000D03*
%TD*%
D18*
%TO.C,MX55*%
X240667500Y-101550000D03*
D12*
X235587500Y-101550000D03*
D18*
X230507500Y-101550000D03*
D19*
X231777500Y-99010000D03*
D20*
X228227500Y-99010000D03*
X241677500Y-96470000D03*
D19*
X238127500Y-96470000D03*
%TD*%
D21*
%TO.C,TP7*%
X118800000Y-69800000D03*
%TD*%
D17*
%TO.C,D50*%
X124387500Y-104450000D03*
X124387500Y-101150000D03*
%TD*%
D18*
%TO.C,MX79*%
X264480000Y-139650000D03*
D12*
X259400000Y-139650000D03*
D18*
X254320000Y-139650000D03*
D19*
X255590000Y-137110000D03*
D20*
X252040000Y-137110000D03*
X265490000Y-134570000D03*
D19*
X261940000Y-134570000D03*
%TD*%
D22*
%TO.C,C2*%
X286937500Y-43150000D03*
X288662500Y-43150000D03*
%TD*%
D23*
%TO.C,R5*%
X293162500Y-43100000D03*
X291337500Y-43100000D03*
%TD*%
D17*
%TO.C,D34*%
X100575000Y-85400000D03*
X100575000Y-82100000D03*
%TD*%
%TO.C,D27*%
X243450000Y-66350000D03*
X243450000Y-63050000D03*
%TD*%
D24*
%TO.C,D2*%
X271812500Y-50800000D03*
X270062500Y-50800000D03*
%TD*%
D18*
%TO.C,MX74*%
X66836250Y-139650000D03*
D12*
X61756250Y-139650000D03*
D18*
X56676250Y-139650000D03*
D19*
X57946250Y-137110000D03*
D20*
X54396250Y-137110000D03*
X67846250Y-134570000D03*
D19*
X64296250Y-134570000D03*
%TD*%
D17*
%TO.C,D17*%
X52950000Y-66350000D03*
X52950000Y-63050000D03*
%TD*%
D18*
%TO.C,MX34*%
X121605000Y-82500000D03*
D12*
X116525000Y-82500000D03*
D18*
X111445000Y-82500000D03*
D19*
X112715000Y-79960000D03*
D20*
X109165000Y-79960000D03*
X122615000Y-77420000D03*
D19*
X119065000Y-77420000D03*
%TD*%
D18*
%TO.C,MX19*%
X112080000Y-63450000D03*
D12*
X107000000Y-63450000D03*
D18*
X101920000Y-63450000D03*
D19*
X103190000Y-60910000D03*
D20*
X99640000Y-60910000D03*
X113090000Y-58370000D03*
D19*
X109540000Y-58370000D03*
%TD*%
D17*
%TO.C,D53*%
X181537500Y-104450000D03*
X181537500Y-101150000D03*
%TD*%
%TO.C,D13*%
X224400000Y-47300000D03*
X224400000Y-44000000D03*
%TD*%
D21*
%TO.C,TP1*%
X7800000Y-70200000D03*
%TD*%
D17*
%TO.C,D11*%
X186300000Y-47300000D03*
X186300000Y-44000000D03*
%TD*%
D22*
%TO.C,C3*%
X266698810Y-48300000D03*
X268423810Y-48300000D03*
%TD*%
D17*
%TO.C,D69*%
X229162500Y-123500000D03*
X229162500Y-120200000D03*
%TD*%
D18*
%TO.C,MX62*%
X116842500Y-120600000D03*
D12*
X111762500Y-120600000D03*
D18*
X106682500Y-120600000D03*
D19*
X107952500Y-118060000D03*
D20*
X104402500Y-118060000D03*
X117852500Y-115520000D03*
D19*
X114302500Y-115520000D03*
%TD*%
D23*
%TO.C,R2*%
X276248500Y-37719000D03*
X274423500Y-37719000D03*
%TD*%
D17*
%TO.C,D56*%
X238687500Y-104450000D03*
X238687500Y-101150000D03*
%TD*%
%TO.C,D62*%
X95812500Y-123500000D03*
X95812500Y-120200000D03*
%TD*%
D18*
%TO.C,MX16*%
X54930000Y-63450000D03*
D12*
X49850000Y-63450000D03*
D18*
X44770000Y-63450000D03*
D19*
X46040000Y-60910000D03*
D20*
X42490000Y-60910000D03*
X55940000Y-58370000D03*
D19*
X52390000Y-58370000D03*
%TD*%
D17*
%TO.C,D20*%
X110100000Y-66350000D03*
X110100000Y-63050000D03*
%TD*%
%TO.C,D5*%
X72000000Y-47300000D03*
X72000000Y-44000000D03*
%TD*%
D21*
%TO.C,TP22*%
X268800000Y-142600000D03*
%TD*%
D25*
%TO.C,C6*%
X284062500Y-43200000D03*
X282337500Y-43200000D03*
%TD*%
D18*
%TO.C,MX40*%
X235905000Y-82500000D03*
D12*
X230825000Y-82500000D03*
D18*
X225745000Y-82500000D03*
D19*
X227015000Y-79960000D03*
D20*
X223465000Y-79960000D03*
X236915000Y-77420000D03*
D19*
X233365000Y-77420000D03*
%TD*%
D17*
%TO.C,D51*%
X143437500Y-104450000D03*
X143437500Y-101150000D03*
%TD*%
D18*
%TO.C,MX58*%
X28736250Y-120600000D03*
D12*
X23656250Y-120600000D03*
D18*
X18576250Y-120600000D03*
D19*
X19846250Y-118060000D03*
D20*
X16296250Y-118060000D03*
X29746250Y-115520000D03*
D19*
X26196250Y-115520000D03*
%TD*%
D17*
%TO.C,D40*%
X214875000Y-85400000D03*
X214875000Y-82100000D03*
%TD*%
D21*
%TO.C,TP21*%
X263000000Y-123250000D03*
%TD*%
%TO.C,TP11*%
X194600000Y-70600000D03*
%TD*%
D26*
%TO.C,SW2*%
X275800000Y-43800000D03*
X280000000Y-43800000D03*
%TD*%
D17*
%TO.C,D54*%
X200587500Y-104450000D03*
X200587500Y-101150000D03*
%TD*%
%TO.C,D8*%
X129150000Y-47300000D03*
X129150000Y-44000000D03*
%TD*%
D27*
%TO.C,J1*%
X291660000Y-39775000D03*
X297440000Y-39775000D03*
D28*
X291350000Y-40850000D03*
X292150000Y-40850000D03*
D29*
X293300000Y-40850000D03*
X294300000Y-40850000D03*
X294800000Y-40850000D03*
X295800000Y-40850000D03*
D28*
X296950000Y-40850000D03*
X297750000Y-40850000D03*
X297750000Y-40850000D03*
X296950000Y-40850000D03*
D29*
X296300000Y-40850000D03*
X295300000Y-40850000D03*
X293800000Y-40850000D03*
X292800000Y-40850000D03*
D28*
X292150000Y-40850000D03*
X291350000Y-40850000D03*
D30*
X290230000Y-36095000D03*
D31*
X290230000Y-40275000D03*
D30*
X298870000Y-36095000D03*
D31*
X298870000Y-40275000D03*
%TD*%
D17*
%TO.C,D76*%
X136293750Y-142550000D03*
X136293750Y-139250000D03*
%TD*%
D32*
%TO.C,C9*%
X262744345Y-50980655D03*
X262744345Y-49255655D03*
%TD*%
D18*
%TO.C,MX47*%
X88267500Y-101550000D03*
D12*
X83187500Y-101550000D03*
D18*
X78107500Y-101550000D03*
D19*
X79377500Y-99010000D03*
D20*
X75827500Y-99010000D03*
X89277500Y-96470000D03*
D19*
X85727500Y-96470000D03*
%TD*%
D21*
%TO.C,TP4*%
X61600000Y-70000000D03*
%TD*%
D18*
%TO.C,MX12*%
X226380000Y-44400000D03*
D12*
X221300000Y-44400000D03*
D18*
X216220000Y-44400000D03*
D19*
X217490000Y-41860000D03*
D20*
X213940000Y-41860000D03*
X227390000Y-39320000D03*
D19*
X223840000Y-39320000D03*
%TD*%
D18*
%TO.C,MX68*%
X231142500Y-120600000D03*
D12*
X226062500Y-120600000D03*
D18*
X220982500Y-120600000D03*
D19*
X222252500Y-118060000D03*
D20*
X218702500Y-118060000D03*
X232152500Y-115520000D03*
D19*
X228602500Y-115520000D03*
%TD*%
D17*
%TO.C,D22*%
X148200000Y-66350000D03*
X148200000Y-63050000D03*
%TD*%
D18*
%TO.C,MX38*%
X197805000Y-82500000D03*
D12*
X192725000Y-82500000D03*
D18*
X187645000Y-82500000D03*
D19*
X188915000Y-79960000D03*
D20*
X185365000Y-79960000D03*
X198815000Y-77420000D03*
D19*
X195265000Y-77420000D03*
%TD*%
D18*
%TO.C,MX61*%
X97792500Y-120600000D03*
D12*
X92712500Y-120600000D03*
D18*
X87632500Y-120600000D03*
D19*
X88902500Y-118060000D03*
D20*
X85352500Y-118060000D03*
X98802500Y-115520000D03*
D19*
X95252500Y-115520000D03*
%TD*%
D18*
%TO.C,MX39*%
X216855000Y-82500000D03*
D12*
X211775000Y-82500000D03*
D18*
X206695000Y-82500000D03*
D19*
X207965000Y-79960000D03*
D20*
X204415000Y-79960000D03*
X217865000Y-77420000D03*
D19*
X214315000Y-77420000D03*
%TD*%
D17*
%TO.C,D29*%
X300600000Y-66350000D03*
X300600000Y-63050000D03*
%TD*%
D18*
%TO.C,MX26*%
X245430000Y-63450000D03*
D12*
X240350000Y-63450000D03*
D18*
X235270000Y-63450000D03*
D19*
X236540000Y-60910000D03*
D20*
X232990000Y-60910000D03*
X246440000Y-58370000D03*
D19*
X242890000Y-58370000D03*
%TD*%
D17*
%TO.C,D73*%
X17231250Y-142550000D03*
X17231250Y-139250000D03*
%TD*%
D18*
%TO.C,MX65*%
X173992500Y-120600000D03*
D12*
X168912500Y-120600000D03*
D18*
X163832500Y-120600000D03*
D19*
X165102500Y-118060000D03*
D20*
X161552500Y-118060000D03*
X175002500Y-115520000D03*
D19*
X171452500Y-115520000D03*
%TD*%
D17*
%TO.C,D45*%
X21993750Y-104450000D03*
X21993750Y-101150000D03*
%TD*%
%TO.C,D25*%
X205350000Y-66350000D03*
X205350000Y-63050000D03*
%TD*%
%TO.C,D21*%
X129150000Y-66350000D03*
X129150000Y-63050000D03*
%TD*%
D18*
%TO.C,MX1*%
X16830000Y-44400000D03*
D12*
X11750000Y-44400000D03*
D18*
X6670000Y-44400000D03*
D19*
X7940000Y-41860000D03*
D20*
X4390000Y-41860000D03*
X17840000Y-39320000D03*
D19*
X14290000Y-39320000D03*
%TD*%
D18*
%TO.C,MX4*%
X73980000Y-44400000D03*
D12*
X68900000Y-44400000D03*
D18*
X63820000Y-44400000D03*
D19*
X65090000Y-41860000D03*
D20*
X61540000Y-41860000D03*
X74990000Y-39320000D03*
D19*
X71440000Y-39320000D03*
%TD*%
D33*
%TO.C,R3*%
X296337500Y-43350000D03*
X298162500Y-43350000D03*
%TD*%
D17*
%TO.C,D75*%
X64856250Y-142550000D03*
X64856250Y-139250000D03*
%TD*%
D21*
%TO.C,3.3vTP1*%
X288750000Y-51500000D03*
%TD*%
D34*
%TO.C,U1*%
X286390000Y-46150000D03*
X284490000Y-46150000D03*
X285440000Y-43875000D03*
%TD*%
D25*
%TO.C,C7*%
X258086310Y-38700000D03*
X256361310Y-38700000D03*
%TD*%
D17*
%TO.C,D49*%
X105337500Y-104450000D03*
X105337500Y-101150000D03*
%TD*%
D21*
%TO.C,TP5*%
X80600000Y-69800000D03*
%TD*%
D18*
%TO.C,MX30*%
X45405000Y-82500000D03*
D12*
X40325000Y-82500000D03*
D18*
X35245000Y-82500000D03*
D19*
X36515000Y-79960000D03*
D20*
X32965000Y-79960000D03*
X46415000Y-77420000D03*
D19*
X42865000Y-77420000D03*
%TD*%
D35*
%TO.C,C11*%
X261144345Y-49255655D03*
X261144345Y-50980655D03*
%TD*%
D17*
%TO.C,D36*%
X138675000Y-85400000D03*
X138675000Y-82100000D03*
%TD*%
D18*
%TO.C,MX48*%
X107317500Y-101550000D03*
D12*
X102237500Y-101550000D03*
D18*
X97157500Y-101550000D03*
D19*
X98427500Y-99010000D03*
D20*
X94877500Y-99010000D03*
X108327500Y-96470000D03*
D19*
X104777500Y-96470000D03*
%TD*%
D18*
%TO.C,MX35*%
X140655000Y-82500000D03*
D12*
X135575000Y-82500000D03*
D18*
X130495000Y-82500000D03*
D19*
X131765000Y-79960000D03*
D20*
X128215000Y-79960000D03*
X141665000Y-77420000D03*
D19*
X138115000Y-77420000D03*
%TD*%
D17*
%TO.C,D15*%
X14850000Y-66350000D03*
X14850000Y-63050000D03*
%TD*%
%TO.C,D71*%
X281550000Y-123500000D03*
X281550000Y-120200000D03*
%TD*%
D21*
%TO.C,5vTP1*%
X288750000Y-46000000D03*
%TD*%
%TO.C,TP12*%
X213200000Y-70400000D03*
%TD*%
D18*
%TO.C,MX63*%
X135892500Y-120600000D03*
D12*
X130812500Y-120600000D03*
D18*
X125732500Y-120600000D03*
D19*
X127002500Y-118060000D03*
D20*
X123452500Y-118060000D03*
X136902500Y-115520000D03*
D19*
X133352500Y-115520000D03*
%TD*%
D18*
%TO.C,MX13*%
X245430000Y-44400000D03*
D12*
X240350000Y-44400000D03*
D18*
X235270000Y-44400000D03*
D19*
X236540000Y-41860000D03*
D20*
X232990000Y-41860000D03*
X246440000Y-39320000D03*
D19*
X242890000Y-39320000D03*
%TD*%
D18*
%TO.C,MX31*%
X64455000Y-82500000D03*
D12*
X59375000Y-82500000D03*
D18*
X54295000Y-82500000D03*
D19*
X55565000Y-79960000D03*
D20*
X52015000Y-79960000D03*
X65465000Y-77420000D03*
D19*
X61915000Y-77420000D03*
%TD*%
D18*
%TO.C,MX67*%
X212092500Y-120600000D03*
D12*
X207012500Y-120600000D03*
D18*
X201932500Y-120600000D03*
D19*
X203202500Y-118060000D03*
D20*
X199652500Y-118060000D03*
X213102500Y-115520000D03*
D19*
X209552500Y-115520000D03*
%TD*%
D18*
%TO.C,MX78*%
X245430000Y-139650000D03*
D12*
X240350000Y-139650000D03*
D18*
X235270000Y-139650000D03*
D19*
X236540000Y-137110000D03*
D20*
X232990000Y-137110000D03*
X246440000Y-134570000D03*
D19*
X242890000Y-134570000D03*
%TD*%
D18*
%TO.C,MX33*%
X102555000Y-82500000D03*
D12*
X97475000Y-82500000D03*
D18*
X92395000Y-82500000D03*
D19*
X93665000Y-79960000D03*
D20*
X90115000Y-79960000D03*
X103565000Y-77420000D03*
D19*
X100015000Y-77420000D03*
%TD*%
D18*
%TO.C,MX66*%
X193042500Y-120600000D03*
D12*
X187962500Y-120600000D03*
D18*
X182882500Y-120600000D03*
D19*
X184152500Y-118060000D03*
D20*
X180602500Y-118060000D03*
X194052500Y-115520000D03*
D19*
X190502500Y-115520000D03*
%TD*%
D17*
%TO.C,D60*%
X57712500Y-123500000D03*
X57712500Y-120200000D03*
%TD*%
%TO.C,D44*%
X300600000Y-85400000D03*
X300600000Y-82100000D03*
%TD*%
D18*
%TO.C,MX36*%
X159705000Y-82500000D03*
D12*
X154625000Y-82500000D03*
D18*
X149545000Y-82500000D03*
D19*
X150815000Y-79960000D03*
D20*
X147265000Y-79960000D03*
X160715000Y-77420000D03*
D19*
X157165000Y-77420000D03*
%TD*%
D17*
%TO.C,D16*%
X33900000Y-66350000D03*
X33900000Y-63050000D03*
%TD*%
%TO.C,D52*%
X162487500Y-104450000D03*
X162487500Y-101150000D03*
%TD*%
D21*
%TO.C,TP14*%
X248200000Y-70200000D03*
%TD*%
D17*
%TO.C,D23*%
X167250000Y-66350000D03*
X167250000Y-63050000D03*
%TD*%
D23*
%TO.C,R7*%
X304512500Y-47000000D03*
X302687500Y-47000000D03*
%TD*%
D18*
%TO.C,MX43*%
X302580000Y-82500000D03*
D12*
X297500000Y-82500000D03*
D18*
X292420000Y-82500000D03*
D19*
X293690000Y-79960000D03*
D20*
X290140000Y-79960000D03*
X303590000Y-77420000D03*
D19*
X300040000Y-77420000D03*
%TD*%
D17*
%TO.C,D31*%
X43425000Y-85400000D03*
X43425000Y-82100000D03*
%TD*%
%TO.C,D26*%
X224400000Y-66350000D03*
X224400000Y-63050000D03*
%TD*%
D35*
%TO.C,C5*%
X274237500Y-42937500D03*
X274237500Y-44662500D03*
%TD*%
D17*
%TO.C,D77*%
X205350000Y-142550000D03*
X205350000Y-139250000D03*
%TD*%
%TO.C,D7*%
X110100000Y-47300000D03*
X110100000Y-44000000D03*
%TD*%
%TO.C,D9*%
X148200000Y-47300000D03*
X148200000Y-44000000D03*
%TD*%
D21*
%TO.C,TP6*%
X99200000Y-70000000D03*
%TD*%
D17*
%TO.C,D74*%
X41043750Y-142550000D03*
X41043750Y-139250000D03*
%TD*%
D18*
%TO.C,MX50*%
X145417500Y-101550000D03*
D12*
X140337500Y-101550000D03*
D18*
X135257500Y-101550000D03*
D19*
X136527500Y-99010000D03*
D20*
X132977500Y-99010000D03*
X146427500Y-96470000D03*
D19*
X142877500Y-96470000D03*
%TD*%
D17*
%TO.C,D82*%
X300600000Y-142550000D03*
X300600000Y-139250000D03*
%TD*%
D18*
%TO.C,MX45*%
X50167500Y-101550000D03*
D12*
X45087500Y-101550000D03*
D18*
X40007500Y-101550000D03*
D19*
X41277500Y-99010000D03*
D20*
X37727500Y-99010000D03*
X51177500Y-96470000D03*
D19*
X47627500Y-96470000D03*
%TD*%
D21*
%TO.C,TP19*%
X259200000Y-85400000D03*
%TD*%
%TO.C,TP13*%
X233200000Y-70200000D03*
%TD*%
D18*
%TO.C,MX76*%
X207330000Y-139650000D03*
D12*
X202250000Y-139650000D03*
D18*
X197170000Y-139650000D03*
D19*
X198440000Y-137110000D03*
D20*
X194890000Y-137110000D03*
X208340000Y-134570000D03*
D19*
X204790000Y-134570000D03*
%TD*%
D17*
%TO.C,D32*%
X62475000Y-85400000D03*
X62475000Y-82100000D03*
%TD*%
D36*
%TO.C,R1*%
X274400000Y-41025000D03*
X274400000Y-39200000D03*
%TD*%
D17*
%TO.C,D43*%
X276787500Y-85400000D03*
X276787500Y-82100000D03*
%TD*%
D18*
%TO.C,MX7*%
X131130000Y-44400000D03*
D12*
X126050000Y-44400000D03*
D18*
X120970000Y-44400000D03*
D19*
X122240000Y-41860000D03*
D20*
X118690000Y-41860000D03*
X132140000Y-39320000D03*
D19*
X128590000Y-39320000D03*
%TD*%
D17*
%TO.C,D10*%
X167250000Y-47300000D03*
X167250000Y-44000000D03*
%TD*%
D23*
%TO.C,R6*%
X304512500Y-44400000D03*
X302687500Y-44400000D03*
%TD*%
D18*
%TO.C,MX44*%
X23973750Y-101550000D03*
D12*
X18893750Y-101550000D03*
D18*
X13813750Y-101550000D03*
D19*
X15083750Y-99010000D03*
D20*
X11533750Y-99010000D03*
X24983750Y-96470000D03*
D19*
X21433750Y-96470000D03*
%TD*%
D18*
%TO.C,MX54*%
X221617500Y-101550000D03*
D12*
X216537500Y-101550000D03*
D18*
X211457500Y-101550000D03*
D19*
X212727500Y-99010000D03*
D20*
X209177500Y-99010000D03*
X222627500Y-96470000D03*
D19*
X219077500Y-96470000D03*
%TD*%
D22*
%TO.C,C4*%
X267498810Y-46700000D03*
X269223810Y-46700000D03*
%TD*%
D17*
%TO.C,D12*%
X205350000Y-47300000D03*
X205350000Y-44000000D03*
%TD*%
D21*
%TO.C,TP17*%
X230750000Y-47500000D03*
%TD*%
D18*
%TO.C,MX41*%
X254955000Y-82500000D03*
D12*
X249875000Y-82500000D03*
D18*
X244795000Y-82500000D03*
D19*
X246065000Y-79960000D03*
D20*
X242515000Y-79960000D03*
X255965000Y-77420000D03*
D19*
X252415000Y-77420000D03*
%TD*%
D17*
%TO.C,D59*%
X26756250Y-123500000D03*
X26756250Y-120200000D03*
%TD*%
%TO.C,D80*%
X262500000Y-142550000D03*
X262500000Y-139250000D03*
%TD*%
D21*
%TO.C,GNDTP2*%
X303000000Y-70500000D03*
%TD*%
%TO.C,TP8*%
X138400000Y-70200000D03*
%TD*%
%TO.C,TP18*%
X256250000Y-66400000D03*
%TD*%
D18*
%TO.C,MX69*%
X257336250Y-120600000D03*
D12*
X252256250Y-120600000D03*
D18*
X247176250Y-120600000D03*
D19*
X248446250Y-118060000D03*
D20*
X244896250Y-118060000D03*
X258346250Y-115520000D03*
D19*
X254796250Y-115520000D03*
%TD*%
D21*
%TO.C,GNDTP1*%
X242000000Y-52000000D03*
%TD*%
D18*
%TO.C,MX14*%
X16830000Y-63450000D03*
D12*
X11750000Y-63450000D03*
D18*
X6670000Y-63450000D03*
D19*
X7940000Y-60910000D03*
D20*
X4390000Y-60910000D03*
X17840000Y-58370000D03*
D19*
X14290000Y-58370000D03*
%TD*%
D17*
%TO.C,D64*%
X133912500Y-123500000D03*
X133912500Y-120200000D03*
%TD*%
%TO.C,D66*%
X172012500Y-123500000D03*
X172012500Y-120200000D03*
%TD*%
D18*
%TO.C,MX18*%
X93030000Y-63450000D03*
D12*
X87950000Y-63450000D03*
D18*
X82870000Y-63450000D03*
D19*
X84140000Y-60910000D03*
D20*
X80590000Y-60910000D03*
X94040000Y-58370000D03*
D19*
X90490000Y-58370000D03*
%TD*%
D37*
%TO.C,SW1*%
X280100000Y-40200000D03*
X275900000Y-40200000D03*
%TD*%
D17*
%TO.C,D38*%
X176775000Y-85400000D03*
X176775000Y-82100000D03*
%TD*%
%TO.C,D67*%
X191062500Y-123500000D03*
X191062500Y-120200000D03*
%TD*%
D21*
%TO.C,TP2*%
X27600000Y-70000000D03*
%TD*%
D18*
%TO.C,MX59*%
X59692500Y-120600000D03*
D12*
X54612500Y-120600000D03*
D18*
X49532500Y-120600000D03*
D19*
X50802500Y-118060000D03*
D20*
X47252500Y-118060000D03*
X60702500Y-115520000D03*
D19*
X57152500Y-115520000D03*
%TD*%
D17*
%TO.C,D6*%
X91050000Y-47300000D03*
X91050000Y-44000000D03*
%TD*%
D18*
%TO.C,MX80*%
X283530000Y-139650000D03*
D12*
X278450000Y-139650000D03*
D18*
X273370000Y-139650000D03*
D19*
X274640000Y-137110000D03*
D20*
X271090000Y-137110000D03*
X284540000Y-134570000D03*
D19*
X280990000Y-134570000D03*
%TD*%
D18*
%TO.C,MX17*%
X73980000Y-63450000D03*
D12*
X68900000Y-63450000D03*
D18*
X63820000Y-63450000D03*
D19*
X65090000Y-60910000D03*
D20*
X61540000Y-60910000D03*
X74990000Y-58370000D03*
D19*
X71440000Y-58370000D03*
%TD*%
D17*
%TO.C,D47*%
X67237500Y-104450000D03*
X67237500Y-101150000D03*
%TD*%
D18*
%TO.C,MX11*%
X207330000Y-44400000D03*
D12*
X202250000Y-44400000D03*
D18*
X197170000Y-44400000D03*
D19*
X198440000Y-41860000D03*
D20*
X194890000Y-41860000D03*
X208340000Y-39320000D03*
D19*
X204790000Y-39320000D03*
%TD*%
D18*
%TO.C,MX52*%
X183517500Y-101550000D03*
D12*
X178437500Y-101550000D03*
D18*
X173357500Y-101550000D03*
D19*
X174627500Y-99010000D03*
D20*
X171077500Y-99010000D03*
X184527500Y-96470000D03*
D19*
X180977500Y-96470000D03*
%TD*%
D18*
%TO.C,MX46*%
X69217500Y-101550000D03*
D12*
X64137500Y-101550000D03*
D18*
X59057500Y-101550000D03*
D19*
X60327500Y-99010000D03*
D20*
X56777500Y-99010000D03*
X70227500Y-96470000D03*
D19*
X66677500Y-96470000D03*
%TD*%
D18*
%TO.C,MX60*%
X78742500Y-120600000D03*
D12*
X73662500Y-120600000D03*
D18*
X68582500Y-120600000D03*
D19*
X69852500Y-118060000D03*
D20*
X66302500Y-118060000D03*
X79752500Y-115520000D03*
D19*
X76202500Y-115520000D03*
%TD*%
D17*
%TO.C,D78*%
X224400000Y-142550000D03*
X224400000Y-139250000D03*
%TD*%
D18*
%TO.C,MX53*%
X202567500Y-101550000D03*
D12*
X197487500Y-101550000D03*
D18*
X192407500Y-101550000D03*
D19*
X193677500Y-99010000D03*
D20*
X190127500Y-99010000D03*
X203577500Y-96470000D03*
D19*
X200027500Y-96470000D03*
%TD*%
D18*
%TO.C,MX6*%
X112080000Y-44400000D03*
D12*
X107000000Y-44400000D03*
D18*
X101920000Y-44400000D03*
D19*
X103190000Y-41860000D03*
D20*
X99640000Y-41860000D03*
X113090000Y-39320000D03*
D19*
X109540000Y-39320000D03*
%TD*%
D25*
%TO.C,C1*%
X286862500Y-39750000D03*
X285137500Y-39750000D03*
%TD*%
D21*
%TO.C,TP9*%
X157000000Y-70200000D03*
%TD*%
D17*
%TO.C,D61*%
X76762500Y-123500000D03*
X76762500Y-120200000D03*
%TD*%
D21*
%TO.C,3.3vTP2*%
X251750000Y-51750000D03*
%TD*%
D17*
%TO.C,D81*%
X281550000Y-142550000D03*
X281550000Y-139250000D03*
%TD*%
D23*
%TO.C,R4*%
X268512500Y-50800000D03*
X266687500Y-50800000D03*
%TD*%
D18*
%TO.C,MX23*%
X188280000Y-63450000D03*
D12*
X183200000Y-63450000D03*
D18*
X178120000Y-63450000D03*
D19*
X179390000Y-60910000D03*
D20*
X175840000Y-60910000D03*
X189290000Y-58370000D03*
D19*
X185740000Y-58370000D03*
%TD*%
D21*
%TO.C,TP15*%
X266000000Y-70200000D03*
%TD*%
D17*
%TO.C,D24*%
X186300000Y-66350000D03*
X186300000Y-63050000D03*
%TD*%
%TO.C,D3*%
X33900000Y-47300000D03*
X33900000Y-44000000D03*
%TD*%
%TO.C,D30*%
X19612500Y-85400000D03*
X19612500Y-82100000D03*
%TD*%
D21*
%TO.C,TP3*%
X42800000Y-70000000D03*
%TD*%
D18*
%TO.C,MX77*%
X226380000Y-139650000D03*
D12*
X221300000Y-139650000D03*
D18*
X216220000Y-139650000D03*
D19*
X217490000Y-137110000D03*
D20*
X213940000Y-137110000D03*
X227390000Y-134570000D03*
D19*
X223840000Y-134570000D03*
%TD*%
D18*
%TO.C,MX2*%
X35880000Y-44400000D03*
D12*
X30800000Y-44400000D03*
D18*
X25720000Y-44400000D03*
D19*
X26990000Y-41860000D03*
D20*
X23440000Y-41860000D03*
X36890000Y-39320000D03*
D19*
X33340000Y-39320000D03*
%TD*%
D18*
%TO.C,MX20*%
X131130000Y-63450000D03*
D12*
X126050000Y-63450000D03*
D18*
X120970000Y-63450000D03*
D19*
X122240000Y-60910000D03*
D20*
X118690000Y-60910000D03*
X132140000Y-58370000D03*
D19*
X128590000Y-58370000D03*
%TD*%
D17*
%TO.C,D63*%
X114862500Y-123500000D03*
X114862500Y-120200000D03*
%TD*%
D18*
%TO.C,MX5*%
X93030000Y-44400000D03*
D12*
X87950000Y-44400000D03*
D18*
X82870000Y-44400000D03*
D19*
X84140000Y-41860000D03*
D20*
X80590000Y-41860000D03*
X94040000Y-39320000D03*
D19*
X90490000Y-39320000D03*
%TD*%
D18*
%TO.C,MX21*%
X150180000Y-63450000D03*
D12*
X145100000Y-63450000D03*
D18*
X140020000Y-63450000D03*
D19*
X141290000Y-60910000D03*
D20*
X137740000Y-60910000D03*
X151190000Y-58370000D03*
D19*
X147640000Y-58370000D03*
%TD*%
D17*
%TO.C,D68*%
X210112500Y-123500000D03*
X210112500Y-120200000D03*
%TD*%
%TO.C,D79*%
X243450000Y-142550000D03*
X243450000Y-139250000D03*
%TD*%
D18*
%TO.C,MX25*%
X226380000Y-63450000D03*
D12*
X221300000Y-63450000D03*
D18*
X216220000Y-63450000D03*
D19*
X217490000Y-60910000D03*
D20*
X213940000Y-60910000D03*
X227390000Y-58370000D03*
D19*
X223840000Y-58370000D03*
%TD*%
D17*
%TO.C,D19*%
X91050000Y-66350000D03*
X91050000Y-63050000D03*
%TD*%
D18*
%TO.C,MX28*%
X302580000Y-63450000D03*
D12*
X297500000Y-63450000D03*
D18*
X292420000Y-63450000D03*
D19*
X293690000Y-60910000D03*
D20*
X290140000Y-60910000D03*
X303590000Y-58370000D03*
D19*
X300040000Y-58370000D03*
%TD*%
D17*
%TO.C,D28*%
X272025000Y-66350000D03*
X272025000Y-63050000D03*
%TD*%
D38*
%TO.C,F1*%
X288537500Y-41500000D03*
X286962500Y-41500000D03*
%TD*%
D18*
%TO.C,MX81*%
X302580000Y-139650000D03*
D12*
X297500000Y-139650000D03*
D18*
X292420000Y-139650000D03*
D19*
X293690000Y-137110000D03*
D20*
X290140000Y-137110000D03*
X303590000Y-134570000D03*
D19*
X300040000Y-134570000D03*
%TD*%
D18*
%TO.C,MX64*%
X154942500Y-120600000D03*
D12*
X149862500Y-120600000D03*
D18*
X144782500Y-120600000D03*
D19*
X146052500Y-118060000D03*
D20*
X142502500Y-118060000D03*
X155952500Y-115520000D03*
D19*
X152402500Y-115520000D03*
%TD*%
D17*
%TO.C,D14*%
X243450000Y-47300000D03*
X243450000Y-44000000D03*
%TD*%
%TO.C,D4*%
X52950000Y-47300000D03*
X52950000Y-44000000D03*
%TD*%
%TO.C,D39*%
X195825000Y-85400000D03*
X195825000Y-82100000D03*
%TD*%
D18*
%TO.C,MX24*%
X207330000Y-63450000D03*
D12*
X202250000Y-63450000D03*
D18*
X197170000Y-63450000D03*
D19*
X198440000Y-60910000D03*
D20*
X194890000Y-60910000D03*
X208340000Y-58370000D03*
D19*
X204790000Y-58370000D03*
%TD*%
D18*
%TO.C,MX22*%
X169230000Y-63450000D03*
D12*
X164150000Y-63450000D03*
D18*
X159070000Y-63450000D03*
D19*
X160340000Y-60910000D03*
D20*
X156790000Y-60910000D03*
X170240000Y-58370000D03*
D19*
X166690000Y-58370000D03*
%TD*%
D17*
%TO.C,D57*%
X269643750Y-104450000D03*
X269643750Y-101150000D03*
%TD*%
D18*
%TO.C,MX57*%
X302580000Y-101550000D03*
D12*
X297500000Y-101550000D03*
D18*
X292420000Y-101550000D03*
D19*
X293690000Y-99010000D03*
D20*
X290140000Y-99010000D03*
X303590000Y-96470000D03*
D19*
X300040000Y-96470000D03*
%TD*%
D17*
%TO.C,D41*%
X233925000Y-85400000D03*
X233925000Y-82100000D03*
%TD*%
D18*
%TO.C,MX9*%
X169230000Y-44400000D03*
D12*
X164150000Y-44400000D03*
D18*
X159070000Y-44400000D03*
D19*
X160340000Y-41860000D03*
D20*
X156790000Y-41860000D03*
X170240000Y-39320000D03*
D19*
X166690000Y-39320000D03*
%TD*%
D21*
%TO.C,TP20*%
X259400000Y-104600000D03*
%TD*%
D18*
%TO.C,MX49*%
X126367500Y-101550000D03*
D12*
X121287500Y-101550000D03*
D18*
X116207500Y-101550000D03*
D19*
X117477500Y-99010000D03*
D20*
X113927500Y-99010000D03*
X127377500Y-96470000D03*
D19*
X123827500Y-96470000D03*
%TD*%
D18*
%TO.C,MX73*%
X43023750Y-139650000D03*
D12*
X37943750Y-139650000D03*
D18*
X32863750Y-139650000D03*
D19*
X34133750Y-137110000D03*
D20*
X30583750Y-137110000D03*
X44033750Y-134570000D03*
D19*
X40483750Y-134570000D03*
%TD*%
D21*
%TO.C,TP10*%
X176200000Y-70200000D03*
%TD*%
D25*
%TO.C,C10*%
X269125000Y-37200000D03*
X267400000Y-37200000D03*
%TD*%
D21*
%TO.C,TP16*%
X293800000Y-70200000D03*
%TD*%
D18*
%TO.C,MX75*%
X138273750Y-139650000D03*
D12*
X133193750Y-139650000D03*
D18*
X128113750Y-139650000D03*
D19*
X129383750Y-137110000D03*
D20*
X125833750Y-137110000D03*
X139283750Y-134570000D03*
D19*
X135733750Y-134570000D03*
%TD*%
D39*
%TO.C,U3*%
X286112500Y-36112500D03*
D40*
X286650000Y-36037500D03*
D39*
X287187500Y-36112500D03*
X287187500Y-37812500D03*
D40*
X286650000Y-37887500D03*
D39*
X286112500Y-37812500D03*
%TD*%
D17*
%TO.C,D1*%
X14850000Y-47300000D03*
X14850000Y-44000000D03*
%TD*%
%TO.C,D55*%
X219637500Y-104450000D03*
X219637500Y-101150000D03*
%TD*%
D18*
%TO.C,MX72*%
X19211250Y-139650000D03*
D12*
X14131250Y-139650000D03*
D18*
X9051250Y-139650000D03*
D19*
X10321250Y-137110000D03*
D20*
X6771250Y-137110000D03*
X20221250Y-134570000D03*
D19*
X16671250Y-134570000D03*
%TD*%
D17*
%TO.C,D33*%
X81525000Y-85400000D03*
X81525000Y-82100000D03*
%TD*%
D18*
%TO.C,MX15*%
X35880000Y-63450000D03*
D12*
X30800000Y-63450000D03*
D18*
X25720000Y-63450000D03*
D19*
X26990000Y-60910000D03*
D20*
X23440000Y-60910000D03*
X36890000Y-58370000D03*
D19*
X33340000Y-58370000D03*
%TD*%
D17*
%TO.C,D65*%
X152962500Y-123500000D03*
X152962500Y-120200000D03*
%TD*%
%TO.C,D37*%
X157725000Y-85400000D03*
X157725000Y-82100000D03*
%TD*%
%TO.C,D58*%
X300600000Y-104450000D03*
X300600000Y-101150000D03*
%TD*%
D18*
%TO.C,MX70*%
X283530000Y-120600000D03*
D12*
X278450000Y-120600000D03*
D18*
X273370000Y-120600000D03*
D19*
X274640000Y-118060000D03*
D20*
X271090000Y-118060000D03*
X284540000Y-115520000D03*
D19*
X280990000Y-115520000D03*
%TD*%
D18*
%TO.C,MX27*%
X274005000Y-63450000D03*
D12*
X268925000Y-63450000D03*
D18*
X263845000Y-63450000D03*
D19*
X265115000Y-60910000D03*
D20*
X261565000Y-60910000D03*
X275015000Y-58370000D03*
D19*
X271465000Y-58370000D03*
%TD*%
D17*
%TO.C,D46*%
X48187500Y-104450000D03*
X48187500Y-101150000D03*
%TD*%
D18*
%TO.C,MX42*%
X278767500Y-82500000D03*
D12*
X273687500Y-82500000D03*
D18*
X268607500Y-82500000D03*
D19*
X269877500Y-79960000D03*
D20*
X266327500Y-79960000D03*
X279777500Y-77420000D03*
D19*
X276227500Y-77420000D03*
%TD*%
D18*
%TO.C,MX56*%
X271623750Y-101550000D03*
D12*
X266543750Y-101550000D03*
D18*
X261463750Y-101550000D03*
D19*
X262733750Y-99010000D03*
D20*
X259183750Y-99010000D03*
X272633750Y-96470000D03*
D19*
X269083750Y-96470000D03*
%TD*%
D18*
%TO.C,MX71*%
X302580000Y-120600000D03*
D12*
X297500000Y-120600000D03*
D18*
X292420000Y-120600000D03*
D19*
X293690000Y-118060000D03*
D20*
X290140000Y-118060000D03*
X303590000Y-115520000D03*
D19*
X300040000Y-115520000D03*
%TD*%
D22*
%TO.C,C8*%
X267400000Y-38800000D03*
X269125000Y-38800000D03*
%TD*%
D18*
%TO.C,MX3*%
X54930000Y-44400000D03*
D12*
X49850000Y-44400000D03*
D18*
X44770000Y-44400000D03*
D19*
X46040000Y-41860000D03*
D20*
X42490000Y-41860000D03*
X55940000Y-39320000D03*
D19*
X52390000Y-39320000D03*
%TD*%
D18*
%TO.C,MX8*%
X150180000Y-44400000D03*
D12*
X145100000Y-44400000D03*
D18*
X140020000Y-44400000D03*
D19*
X141290000Y-41860000D03*
D20*
X137740000Y-41860000D03*
X151190000Y-39320000D03*
D19*
X147640000Y-39320000D03*
%TD*%
D41*
%TO.C,U2*%
X265511310Y-46862500D03*
X265011310Y-46862500D03*
X264511310Y-46862500D03*
X264011310Y-46862500D03*
X263511310Y-46862500D03*
X263011310Y-46862500D03*
X262511310Y-46862500D03*
X262011310Y-46862500D03*
X261511310Y-46862500D03*
X261011310Y-46862500D03*
X260511310Y-46862500D03*
X260011310Y-46862500D03*
D42*
X258598810Y-45450000D03*
X258598810Y-44950000D03*
X258598810Y-44450000D03*
X258598810Y-43950000D03*
X258598810Y-43450000D03*
X258598810Y-42950000D03*
X258598810Y-42450000D03*
X258598810Y-41950000D03*
X258598810Y-41450000D03*
X258598810Y-40950000D03*
X258598810Y-40450000D03*
X258598810Y-39950000D03*
D41*
X260011310Y-38537500D03*
X260511310Y-38537500D03*
X261011310Y-38537500D03*
X261511310Y-38537500D03*
X262011310Y-38537500D03*
X262511310Y-38537500D03*
X263011310Y-38537500D03*
X263511310Y-38537500D03*
X264011310Y-38537500D03*
X264511310Y-38537500D03*
X265011310Y-38537500D03*
X265511310Y-38537500D03*
D42*
X266923810Y-39950000D03*
X266923810Y-40450000D03*
X266923810Y-40950000D03*
X266923810Y-41450000D03*
X266923810Y-41950000D03*
X266923810Y-42450000D03*
X266923810Y-42950000D03*
X266923810Y-43450000D03*
X266923810Y-43950000D03*
X266923810Y-44450000D03*
X266923810Y-44950000D03*
X266923810Y-45450000D03*
%TD*%
D18*
%TO.C,MX37*%
X178755000Y-82500000D03*
D12*
X173675000Y-82500000D03*
D18*
X168595000Y-82500000D03*
D19*
X169865000Y-79960000D03*
D20*
X166315000Y-79960000D03*
X179765000Y-77420000D03*
D19*
X176215000Y-77420000D03*
%TD*%
D17*
%TO.C,D72*%
X300600000Y-123500000D03*
X300600000Y-120200000D03*
%TD*%
%TO.C,D48*%
X86287500Y-104450000D03*
X86287500Y-101150000D03*
%TD*%
D18*
%TO.C,MX32*%
X83505000Y-82500000D03*
D12*
X78425000Y-82500000D03*
D18*
X73345000Y-82500000D03*
D19*
X74615000Y-79960000D03*
D20*
X71065000Y-79960000D03*
X84515000Y-77420000D03*
D19*
X80965000Y-77420000D03*
%TD*%
D18*
%TO.C,MX51*%
X164467500Y-101550000D03*
D12*
X159387500Y-101550000D03*
D18*
X154307500Y-101550000D03*
D19*
X155577500Y-99010000D03*
D20*
X152027500Y-99010000D03*
X165477500Y-96470000D03*
D19*
X161927500Y-96470000D03*
%TD*%
D17*
%TO.C,D18*%
X72000000Y-66350000D03*
X72000000Y-63050000D03*
%TD*%
%TO.C,D42*%
X252975000Y-85400000D03*
X252975000Y-82100000D03*
%TD*%
%TO.C,D35*%
X119625000Y-85400000D03*
X119625000Y-82100000D03*
%TD*%
D18*
%TO.C,MX10*%
X188280000Y-44400000D03*
D12*
X183200000Y-44400000D03*
D18*
X178120000Y-44400000D03*
D19*
X179390000Y-41860000D03*
D20*
X175840000Y-41860000D03*
X189290000Y-39320000D03*
D19*
X185740000Y-39320000D03*
%TD*%
M02*
