%TF.GenerationSoftware,KiCad,Pcbnew,9.0.4*%
%TF.CreationDate,2026-01-09T16:44:29-06:00*%
%TF.ProjectId,Keyboard,4b657962-6f61-4726-942e-6b696361645f,rev?*%
%TF.SameCoordinates,Original*%
%TF.FileFunction,Paste,Bot*%
%TF.FilePolarity,Positive*%
%FSLAX46Y46*%
G04 Gerber Fmt 4.6, Leading zero omitted, Abs format (unit mm)*
G04 Created by KiCad (PCBNEW 9.0.4) date 2026-01-09 16:44:29*
%MOMM*%
%LPD*%
G01*
G04 APERTURE LIST*
G04 Aperture macros list*
%AMRoundRect*
0 Rectangle with rounded corners*
0 $1 Rounding radius*
0 $2 $3 $4 $5 $6 $7 $8 $9 X,Y pos of 4 corners*
0 Add a 4 corners polygon primitive as box body*
4,1,4,$2,$3,$4,$5,$6,$7,$8,$9,$2,$3,0*
0 Add four circle primitives for the rounded corners*
1,1,$1+$1,$2,$3*
1,1,$1+$1,$4,$5*
1,1,$1+$1,$6,$7*
1,1,$1+$1,$8,$9*
0 Add four rect primitives between the rounded corners*
20,1,$1+$1,$2,$3,$4,$5,0*
20,1,$1+$1,$4,$5,$6,$7,0*
20,1,$1+$1,$6,$7,$8,$9,0*
20,1,$1+$1,$8,$9,$2,$3,0*%
G04 Aperture macros list end*
%ADD10RoundRect,0.225000X0.375000X-0.225000X0.375000X0.225000X-0.375000X0.225000X-0.375000X-0.225000X0*%
%ADD11RoundRect,0.250000X1.025000X1.000000X-1.025000X1.000000X-1.025000X-1.000000X1.025000X-1.000000X0*%
%ADD12RoundRect,0.237500X-0.300000X-0.237500X0.300000X-0.237500X0.300000X0.237500X-0.300000X0.237500X0*%
%ADD13RoundRect,0.237500X0.250000X0.237500X-0.250000X0.237500X-0.250000X-0.237500X0.250000X-0.237500X0*%
%ADD14RoundRect,0.237500X0.287500X0.237500X-0.287500X0.237500X-0.287500X-0.237500X0.287500X-0.237500X0*%
%ADD15RoundRect,0.237500X0.300000X0.237500X-0.300000X0.237500X-0.300000X-0.237500X0.300000X-0.237500X0*%
%ADD16RoundRect,0.200000X-0.200000X-0.800000X0.200000X-0.800000X0.200000X0.800000X-0.200000X0.800000X0*%
%ADD17RoundRect,0.150000X-0.150000X-0.425000X0.150000X-0.425000X0.150000X0.425000X-0.150000X0.425000X0*%
%ADD18RoundRect,0.075000X-0.075000X-0.500000X0.075000X-0.500000X0.075000X0.500000X-0.075000X0.500000X0*%
%ADD19O,1.000000X1.800000*%
%ADD20O,1.000000X2.100000*%
%ADD21RoundRect,0.237500X0.237500X-0.300000X0.237500X0.300000X-0.237500X0.300000X-0.237500X-0.300000X0*%
%ADD22RoundRect,0.237500X-0.250000X-0.237500X0.250000X-0.237500X0.250000X0.237500X-0.250000X0.237500X0*%
%ADD23RoundRect,0.150000X0.150000X-0.512500X0.150000X0.512500X-0.150000X0.512500X-0.150000X-0.512500X0*%
%ADD24RoundRect,0.237500X-0.237500X0.300000X-0.237500X-0.300000X0.237500X-0.300000X0.237500X0.300000X0*%
%ADD25RoundRect,0.237500X0.237500X-0.250000X0.237500X0.250000X-0.237500X0.250000X-0.237500X-0.250000X0*%
%ADD26RoundRect,0.200000X0.200000X0.800000X-0.200000X0.800000X-0.200000X-0.800000X0.200000X-0.800000X0*%
%ADD27RoundRect,0.218750X0.218750X0.256250X-0.218750X0.256250X-0.218750X-0.256250X0.218750X-0.256250X0*%
%ADD28RoundRect,0.093750X-0.093750X0.156250X-0.093750X-0.156250X0.093750X-0.156250X0.093750X0.156250X0*%
%ADD29RoundRect,0.075000X-0.075000X0.250000X-0.075000X-0.250000X0.075000X-0.250000X0.075000X0.250000X0*%
%ADD30RoundRect,0.075000X0.075000X-0.662500X0.075000X0.662500X-0.075000X0.662500X-0.075000X-0.662500X0*%
%ADD31RoundRect,0.075000X0.662500X-0.075000X0.662500X0.075000X-0.662500X0.075000X-0.662500X-0.075000X0*%
G04 APERTURE END LIST*
D10*
%TO.C,D70*%
X255356250Y-123500000D03*
X255356250Y-120200000D03*
%TD*%
D11*
%TO.C,MX29*%
X9152500Y-79960000D03*
X22602500Y-77420000D03*
%TD*%
%TO.C,MX55*%
X228227500Y-99010000D03*
X241677500Y-96470000D03*
%TD*%
D10*
%TO.C,D50*%
X124387500Y-104450000D03*
X124387500Y-101150000D03*
%TD*%
D11*
%TO.C,MX79*%
X252040000Y-137110000D03*
X265490000Y-134570000D03*
%TD*%
D12*
%TO.C,C2*%
X286937500Y-43150000D03*
X288662500Y-43150000D03*
%TD*%
D13*
%TO.C,R5*%
X293162500Y-43100000D03*
X291337500Y-43100000D03*
%TD*%
D10*
%TO.C,D34*%
X100575000Y-85400000D03*
X100575000Y-82100000D03*
%TD*%
%TO.C,D27*%
X243450000Y-66350000D03*
X243450000Y-63050000D03*
%TD*%
D14*
%TO.C,D2*%
X271812500Y-50800000D03*
X270062500Y-50800000D03*
%TD*%
D11*
%TO.C,MX74*%
X54396250Y-137110000D03*
X67846250Y-134570000D03*
%TD*%
D10*
%TO.C,D17*%
X52950000Y-66350000D03*
X52950000Y-63050000D03*
%TD*%
D11*
%TO.C,MX34*%
X109165000Y-79960000D03*
X122615000Y-77420000D03*
%TD*%
%TO.C,MX19*%
X99640000Y-60910000D03*
X113090000Y-58370000D03*
%TD*%
D10*
%TO.C,D53*%
X181537500Y-104450000D03*
X181537500Y-101150000D03*
%TD*%
%TO.C,D13*%
X224400000Y-47300000D03*
X224400000Y-44000000D03*
%TD*%
%TO.C,D11*%
X186300000Y-47300000D03*
X186300000Y-44000000D03*
%TD*%
D12*
%TO.C,C3*%
X266698810Y-48300000D03*
X268423810Y-48300000D03*
%TD*%
D10*
%TO.C,D69*%
X229162500Y-123500000D03*
X229162500Y-120200000D03*
%TD*%
D11*
%TO.C,MX62*%
X104402500Y-118060000D03*
X117852500Y-115520000D03*
%TD*%
D13*
%TO.C,R2*%
X276248500Y-37719000D03*
X274423500Y-37719000D03*
%TD*%
D10*
%TO.C,D56*%
X238687500Y-104450000D03*
X238687500Y-101150000D03*
%TD*%
%TO.C,D62*%
X95812500Y-123500000D03*
X95812500Y-120200000D03*
%TD*%
D11*
%TO.C,MX16*%
X42490000Y-60910000D03*
X55940000Y-58370000D03*
%TD*%
D10*
%TO.C,D20*%
X110100000Y-66350000D03*
X110100000Y-63050000D03*
%TD*%
%TO.C,D5*%
X72000000Y-47300000D03*
X72000000Y-44000000D03*
%TD*%
D15*
%TO.C,C6*%
X284062500Y-43200000D03*
X282337500Y-43200000D03*
%TD*%
D11*
%TO.C,MX40*%
X223465000Y-79960000D03*
X236915000Y-77420000D03*
%TD*%
D10*
%TO.C,D51*%
X143437500Y-104450000D03*
X143437500Y-101150000D03*
%TD*%
D11*
%TO.C,MX58*%
X16296250Y-118060000D03*
X29746250Y-115520000D03*
%TD*%
D10*
%TO.C,D40*%
X214875000Y-85400000D03*
X214875000Y-82100000D03*
%TD*%
D16*
%TO.C,SW2*%
X275800000Y-43800000D03*
X280000000Y-43800000D03*
%TD*%
D10*
%TO.C,D54*%
X200587500Y-104450000D03*
X200587500Y-101150000D03*
%TD*%
%TO.C,D8*%
X129150000Y-47300000D03*
X129150000Y-44000000D03*
%TD*%
D17*
%TO.C,J1*%
X291350000Y-40850000D03*
X292150000Y-40850000D03*
D18*
X293300000Y-40850000D03*
X294300000Y-40850000D03*
X294800000Y-40850000D03*
X295800000Y-40850000D03*
D17*
X296950000Y-40850000D03*
X297750000Y-40850000D03*
X297750000Y-40850000D03*
X296950000Y-40850000D03*
D18*
X296300000Y-40850000D03*
X295300000Y-40850000D03*
X293800000Y-40850000D03*
X292800000Y-40850000D03*
D17*
X292150000Y-40850000D03*
X291350000Y-40850000D03*
D19*
X290230000Y-36095000D03*
D20*
X290230000Y-40275000D03*
D19*
X298870000Y-36095000D03*
D20*
X298870000Y-40275000D03*
%TD*%
D10*
%TO.C,D76*%
X136293750Y-142550000D03*
X136293750Y-139250000D03*
%TD*%
D21*
%TO.C,C9*%
X262744345Y-50980655D03*
X262744345Y-49255655D03*
%TD*%
D11*
%TO.C,MX47*%
X75827500Y-99010000D03*
X89277500Y-96470000D03*
%TD*%
%TO.C,MX12*%
X213940000Y-41860000D03*
X227390000Y-39320000D03*
%TD*%
%TO.C,MX68*%
X218702500Y-118060000D03*
X232152500Y-115520000D03*
%TD*%
D10*
%TO.C,D22*%
X148200000Y-66350000D03*
X148200000Y-63050000D03*
%TD*%
D11*
%TO.C,MX38*%
X185365000Y-79960000D03*
X198815000Y-77420000D03*
%TD*%
%TO.C,MX61*%
X85352500Y-118060000D03*
X98802500Y-115520000D03*
%TD*%
%TO.C,MX39*%
X204415000Y-79960000D03*
X217865000Y-77420000D03*
%TD*%
D10*
%TO.C,D29*%
X300600000Y-66350000D03*
X300600000Y-63050000D03*
%TD*%
D11*
%TO.C,MX26*%
X232990000Y-60910000D03*
X246440000Y-58370000D03*
%TD*%
D10*
%TO.C,D73*%
X17231250Y-142550000D03*
X17231250Y-139250000D03*
%TD*%
D11*
%TO.C,MX65*%
X161552500Y-118060000D03*
X175002500Y-115520000D03*
%TD*%
D10*
%TO.C,D45*%
X21993750Y-104450000D03*
X21993750Y-101150000D03*
%TD*%
%TO.C,D25*%
X205350000Y-66350000D03*
X205350000Y-63050000D03*
%TD*%
%TO.C,D21*%
X129150000Y-66350000D03*
X129150000Y-63050000D03*
%TD*%
D11*
%TO.C,MX1*%
X4390000Y-41860000D03*
X17840000Y-39320000D03*
%TD*%
%TO.C,MX4*%
X61540000Y-41860000D03*
X74990000Y-39320000D03*
%TD*%
D22*
%TO.C,R3*%
X296337500Y-43350000D03*
X298162500Y-43350000D03*
%TD*%
D10*
%TO.C,D75*%
X64856250Y-142550000D03*
X64856250Y-139250000D03*
%TD*%
D23*
%TO.C,U1*%
X286390000Y-46150000D03*
X284490000Y-46150000D03*
X285440000Y-43875000D03*
%TD*%
D15*
%TO.C,C7*%
X258086310Y-38700000D03*
X256361310Y-38700000D03*
%TD*%
D10*
%TO.C,D49*%
X105337500Y-104450000D03*
X105337500Y-101150000D03*
%TD*%
D11*
%TO.C,MX30*%
X32965000Y-79960000D03*
X46415000Y-77420000D03*
%TD*%
D24*
%TO.C,C11*%
X261144345Y-49255655D03*
X261144345Y-50980655D03*
%TD*%
D10*
%TO.C,D36*%
X138675000Y-85400000D03*
X138675000Y-82100000D03*
%TD*%
D11*
%TO.C,MX48*%
X94877500Y-99010000D03*
X108327500Y-96470000D03*
%TD*%
%TO.C,MX35*%
X128215000Y-79960000D03*
X141665000Y-77420000D03*
%TD*%
D10*
%TO.C,D15*%
X14850000Y-66350000D03*
X14850000Y-63050000D03*
%TD*%
%TO.C,D71*%
X281550000Y-123500000D03*
X281550000Y-120200000D03*
%TD*%
D11*
%TO.C,MX63*%
X123452500Y-118060000D03*
X136902500Y-115520000D03*
%TD*%
%TO.C,MX13*%
X232990000Y-41860000D03*
X246440000Y-39320000D03*
%TD*%
%TO.C,MX31*%
X52015000Y-79960000D03*
X65465000Y-77420000D03*
%TD*%
%TO.C,MX67*%
X199652500Y-118060000D03*
X213102500Y-115520000D03*
%TD*%
%TO.C,MX78*%
X232990000Y-137110000D03*
X246440000Y-134570000D03*
%TD*%
%TO.C,MX33*%
X90115000Y-79960000D03*
X103565000Y-77420000D03*
%TD*%
%TO.C,MX66*%
X180602500Y-118060000D03*
X194052500Y-115520000D03*
%TD*%
D10*
%TO.C,D60*%
X57712500Y-123500000D03*
X57712500Y-120200000D03*
%TD*%
%TO.C,D44*%
X300600000Y-85400000D03*
X300600000Y-82100000D03*
%TD*%
D11*
%TO.C,MX36*%
X147265000Y-79960000D03*
X160715000Y-77420000D03*
%TD*%
D10*
%TO.C,D16*%
X33900000Y-66350000D03*
X33900000Y-63050000D03*
%TD*%
%TO.C,D52*%
X162487500Y-104450000D03*
X162487500Y-101150000D03*
%TD*%
%TO.C,D23*%
X167250000Y-66350000D03*
X167250000Y-63050000D03*
%TD*%
D13*
%TO.C,R7*%
X304512500Y-47000000D03*
X302687500Y-47000000D03*
%TD*%
D11*
%TO.C,MX43*%
X290140000Y-79960000D03*
X303590000Y-77420000D03*
%TD*%
D10*
%TO.C,D31*%
X43425000Y-85400000D03*
X43425000Y-82100000D03*
%TD*%
%TO.C,D26*%
X224400000Y-66350000D03*
X224400000Y-63050000D03*
%TD*%
D24*
%TO.C,C5*%
X274237500Y-42937500D03*
X274237500Y-44662500D03*
%TD*%
D10*
%TO.C,D77*%
X205350000Y-142550000D03*
X205350000Y-139250000D03*
%TD*%
%TO.C,D7*%
X110100000Y-47300000D03*
X110100000Y-44000000D03*
%TD*%
%TO.C,D9*%
X148200000Y-47300000D03*
X148200000Y-44000000D03*
%TD*%
%TO.C,D74*%
X41043750Y-142550000D03*
X41043750Y-139250000D03*
%TD*%
D11*
%TO.C,MX50*%
X132977500Y-99010000D03*
X146427500Y-96470000D03*
%TD*%
D10*
%TO.C,D82*%
X300600000Y-142550000D03*
X300600000Y-139250000D03*
%TD*%
D11*
%TO.C,MX45*%
X37727500Y-99010000D03*
X51177500Y-96470000D03*
%TD*%
%TO.C,MX76*%
X194890000Y-137110000D03*
X208340000Y-134570000D03*
%TD*%
D10*
%TO.C,D32*%
X62475000Y-85400000D03*
X62475000Y-82100000D03*
%TD*%
D25*
%TO.C,R1*%
X274400000Y-41025000D03*
X274400000Y-39200000D03*
%TD*%
D10*
%TO.C,D43*%
X276787500Y-85400000D03*
X276787500Y-82100000D03*
%TD*%
D11*
%TO.C,MX7*%
X118690000Y-41860000D03*
X132140000Y-39320000D03*
%TD*%
D10*
%TO.C,D10*%
X167250000Y-47300000D03*
X167250000Y-44000000D03*
%TD*%
D13*
%TO.C,R6*%
X304512500Y-44400000D03*
X302687500Y-44400000D03*
%TD*%
D11*
%TO.C,MX44*%
X11533750Y-99010000D03*
X24983750Y-96470000D03*
%TD*%
%TO.C,MX54*%
X209177500Y-99010000D03*
X222627500Y-96470000D03*
%TD*%
D12*
%TO.C,C4*%
X267498810Y-46700000D03*
X269223810Y-46700000D03*
%TD*%
D10*
%TO.C,D12*%
X205350000Y-47300000D03*
X205350000Y-44000000D03*
%TD*%
D11*
%TO.C,MX41*%
X242515000Y-79960000D03*
X255965000Y-77420000D03*
%TD*%
D10*
%TO.C,D59*%
X26756250Y-123500000D03*
X26756250Y-120200000D03*
%TD*%
%TO.C,D80*%
X262500000Y-142550000D03*
X262500000Y-139250000D03*
%TD*%
D11*
%TO.C,MX69*%
X244896250Y-118060000D03*
X258346250Y-115520000D03*
%TD*%
%TO.C,MX14*%
X4390000Y-60910000D03*
X17840000Y-58370000D03*
%TD*%
D10*
%TO.C,D64*%
X133912500Y-123500000D03*
X133912500Y-120200000D03*
%TD*%
%TO.C,D66*%
X172012500Y-123500000D03*
X172012500Y-120200000D03*
%TD*%
D11*
%TO.C,MX18*%
X80590000Y-60910000D03*
X94040000Y-58370000D03*
%TD*%
D26*
%TO.C,SW1*%
X280100000Y-40200000D03*
X275900000Y-40200000D03*
%TD*%
D10*
%TO.C,D38*%
X176775000Y-85400000D03*
X176775000Y-82100000D03*
%TD*%
%TO.C,D67*%
X191062500Y-123500000D03*
X191062500Y-120200000D03*
%TD*%
D11*
%TO.C,MX59*%
X47252500Y-118060000D03*
X60702500Y-115520000D03*
%TD*%
D10*
%TO.C,D6*%
X91050000Y-47300000D03*
X91050000Y-44000000D03*
%TD*%
D11*
%TO.C,MX80*%
X271090000Y-137110000D03*
X284540000Y-134570000D03*
%TD*%
%TO.C,MX17*%
X61540000Y-60910000D03*
X74990000Y-58370000D03*
%TD*%
D10*
%TO.C,D47*%
X67237500Y-104450000D03*
X67237500Y-101150000D03*
%TD*%
D11*
%TO.C,MX11*%
X194890000Y-41860000D03*
X208340000Y-39320000D03*
%TD*%
%TO.C,MX52*%
X171077500Y-99010000D03*
X184527500Y-96470000D03*
%TD*%
%TO.C,MX46*%
X56777500Y-99010000D03*
X70227500Y-96470000D03*
%TD*%
%TO.C,MX60*%
X66302500Y-118060000D03*
X79752500Y-115520000D03*
%TD*%
D10*
%TO.C,D78*%
X224400000Y-142550000D03*
X224400000Y-139250000D03*
%TD*%
D11*
%TO.C,MX53*%
X190127500Y-99010000D03*
X203577500Y-96470000D03*
%TD*%
%TO.C,MX6*%
X99640000Y-41860000D03*
X113090000Y-39320000D03*
%TD*%
D15*
%TO.C,C1*%
X286862500Y-39750000D03*
X285137500Y-39750000D03*
%TD*%
D10*
%TO.C,D61*%
X76762500Y-123500000D03*
X76762500Y-120200000D03*
%TD*%
%TO.C,D81*%
X281550000Y-142550000D03*
X281550000Y-139250000D03*
%TD*%
D13*
%TO.C,R4*%
X268512500Y-50800000D03*
X266687500Y-50800000D03*
%TD*%
D11*
%TO.C,MX23*%
X175840000Y-60910000D03*
X189290000Y-58370000D03*
%TD*%
D10*
%TO.C,D24*%
X186300000Y-66350000D03*
X186300000Y-63050000D03*
%TD*%
%TO.C,D3*%
X33900000Y-47300000D03*
X33900000Y-44000000D03*
%TD*%
%TO.C,D30*%
X19612500Y-85400000D03*
X19612500Y-82100000D03*
%TD*%
D11*
%TO.C,MX77*%
X213940000Y-137110000D03*
X227390000Y-134570000D03*
%TD*%
%TO.C,MX2*%
X23440000Y-41860000D03*
X36890000Y-39320000D03*
%TD*%
%TO.C,MX20*%
X118690000Y-60910000D03*
X132140000Y-58370000D03*
%TD*%
D10*
%TO.C,D63*%
X114862500Y-123500000D03*
X114862500Y-120200000D03*
%TD*%
D11*
%TO.C,MX5*%
X80590000Y-41860000D03*
X94040000Y-39320000D03*
%TD*%
%TO.C,MX21*%
X137740000Y-60910000D03*
X151190000Y-58370000D03*
%TD*%
D10*
%TO.C,D68*%
X210112500Y-123500000D03*
X210112500Y-120200000D03*
%TD*%
%TO.C,D79*%
X243450000Y-142550000D03*
X243450000Y-139250000D03*
%TD*%
D11*
%TO.C,MX25*%
X213940000Y-60910000D03*
X227390000Y-58370000D03*
%TD*%
D10*
%TO.C,D19*%
X91050000Y-66350000D03*
X91050000Y-63050000D03*
%TD*%
D11*
%TO.C,MX28*%
X290140000Y-60910000D03*
X303590000Y-58370000D03*
%TD*%
D10*
%TO.C,D28*%
X272025000Y-66350000D03*
X272025000Y-63050000D03*
%TD*%
D27*
%TO.C,F1*%
X288537500Y-41500000D03*
X286962500Y-41500000D03*
%TD*%
D11*
%TO.C,MX81*%
X290140000Y-137110000D03*
X303590000Y-134570000D03*
%TD*%
%TO.C,MX64*%
X142502500Y-118060000D03*
X155952500Y-115520000D03*
%TD*%
D10*
%TO.C,D14*%
X243450000Y-47300000D03*
X243450000Y-44000000D03*
%TD*%
%TO.C,D4*%
X52950000Y-47300000D03*
X52950000Y-44000000D03*
%TD*%
%TO.C,D39*%
X195825000Y-85400000D03*
X195825000Y-82100000D03*
%TD*%
D11*
%TO.C,MX24*%
X194890000Y-60910000D03*
X208340000Y-58370000D03*
%TD*%
%TO.C,MX22*%
X156790000Y-60910000D03*
X170240000Y-58370000D03*
%TD*%
D10*
%TO.C,D57*%
X269643750Y-104450000D03*
X269643750Y-101150000D03*
%TD*%
D11*
%TO.C,MX57*%
X290140000Y-99010000D03*
X303590000Y-96470000D03*
%TD*%
D10*
%TO.C,D41*%
X233925000Y-85400000D03*
X233925000Y-82100000D03*
%TD*%
D11*
%TO.C,MX9*%
X156790000Y-41860000D03*
X170240000Y-39320000D03*
%TD*%
%TO.C,MX49*%
X113927500Y-99010000D03*
X127377500Y-96470000D03*
%TD*%
%TO.C,MX73*%
X30583750Y-137110000D03*
X44033750Y-134570000D03*
%TD*%
D15*
%TO.C,C10*%
X269125000Y-37200000D03*
X267400000Y-37200000D03*
%TD*%
D11*
%TO.C,MX75*%
X125833750Y-137110000D03*
X139283750Y-134570000D03*
%TD*%
D28*
%TO.C,U3*%
X286112500Y-36112500D03*
D29*
X286650000Y-36037500D03*
D28*
X287187500Y-36112500D03*
X287187500Y-37812500D03*
D29*
X286650000Y-37887500D03*
D28*
X286112500Y-37812500D03*
%TD*%
D10*
%TO.C,D1*%
X14850000Y-47300000D03*
X14850000Y-44000000D03*
%TD*%
%TO.C,D55*%
X219637500Y-104450000D03*
X219637500Y-101150000D03*
%TD*%
D11*
%TO.C,MX72*%
X6771250Y-137110000D03*
X20221250Y-134570000D03*
%TD*%
D10*
%TO.C,D33*%
X81525000Y-85400000D03*
X81525000Y-82100000D03*
%TD*%
D11*
%TO.C,MX15*%
X23440000Y-60910000D03*
X36890000Y-58370000D03*
%TD*%
D10*
%TO.C,D65*%
X152962500Y-123500000D03*
X152962500Y-120200000D03*
%TD*%
%TO.C,D37*%
X157725000Y-85400000D03*
X157725000Y-82100000D03*
%TD*%
%TO.C,D58*%
X300600000Y-104450000D03*
X300600000Y-101150000D03*
%TD*%
D11*
%TO.C,MX70*%
X271090000Y-118060000D03*
X284540000Y-115520000D03*
%TD*%
%TO.C,MX27*%
X261565000Y-60910000D03*
X275015000Y-58370000D03*
%TD*%
D10*
%TO.C,D46*%
X48187500Y-104450000D03*
X48187500Y-101150000D03*
%TD*%
D11*
%TO.C,MX42*%
X266327500Y-79960000D03*
X279777500Y-77420000D03*
%TD*%
%TO.C,MX56*%
X259183750Y-99010000D03*
X272633750Y-96470000D03*
%TD*%
%TO.C,MX71*%
X290140000Y-118060000D03*
X303590000Y-115520000D03*
%TD*%
D12*
%TO.C,C8*%
X267400000Y-38800000D03*
X269125000Y-38800000D03*
%TD*%
D11*
%TO.C,MX3*%
X42490000Y-41860000D03*
X55940000Y-39320000D03*
%TD*%
%TO.C,MX8*%
X137740000Y-41860000D03*
X151190000Y-39320000D03*
%TD*%
D30*
%TO.C,U2*%
X265511310Y-46862500D03*
X265011310Y-46862500D03*
X264511310Y-46862500D03*
X264011310Y-46862500D03*
X263511310Y-46862500D03*
X263011310Y-46862500D03*
X262511310Y-46862500D03*
X262011310Y-46862500D03*
X261511310Y-46862500D03*
X261011310Y-46862500D03*
X260511310Y-46862500D03*
X260011310Y-46862500D03*
D31*
X258598810Y-45450000D03*
X258598810Y-44950000D03*
X258598810Y-44450000D03*
X258598810Y-43950000D03*
X258598810Y-43450000D03*
X258598810Y-42950000D03*
X258598810Y-42450000D03*
X258598810Y-41950000D03*
X258598810Y-41450000D03*
X258598810Y-40950000D03*
X258598810Y-40450000D03*
X258598810Y-39950000D03*
D30*
X260011310Y-38537500D03*
X260511310Y-38537500D03*
X261011310Y-38537500D03*
X261511310Y-38537500D03*
X262011310Y-38537500D03*
X262511310Y-38537500D03*
X263011310Y-38537500D03*
X263511310Y-38537500D03*
X264011310Y-38537500D03*
X264511310Y-38537500D03*
X265011310Y-38537500D03*
X265511310Y-38537500D03*
D31*
X266923810Y-39950000D03*
X266923810Y-40450000D03*
X266923810Y-40950000D03*
X266923810Y-41450000D03*
X266923810Y-41950000D03*
X266923810Y-42450000D03*
X266923810Y-42950000D03*
X266923810Y-43450000D03*
X266923810Y-43950000D03*
X266923810Y-44450000D03*
X266923810Y-44950000D03*
X266923810Y-45450000D03*
%TD*%
D11*
%TO.C,MX37*%
X166315000Y-79960000D03*
X179765000Y-77420000D03*
%TD*%
D10*
%TO.C,D72*%
X300600000Y-123500000D03*
X300600000Y-120200000D03*
%TD*%
%TO.C,D48*%
X86287500Y-104450000D03*
X86287500Y-101150000D03*
%TD*%
D11*
%TO.C,MX32*%
X71065000Y-79960000D03*
X84515000Y-77420000D03*
%TD*%
%TO.C,MX51*%
X152027500Y-99010000D03*
X165477500Y-96470000D03*
%TD*%
D10*
%TO.C,D18*%
X72000000Y-66350000D03*
X72000000Y-63050000D03*
%TD*%
%TO.C,D42*%
X252975000Y-85400000D03*
X252975000Y-82100000D03*
%TD*%
%TO.C,D35*%
X119625000Y-85400000D03*
X119625000Y-82100000D03*
%TD*%
D11*
%TO.C,MX10*%
X175840000Y-41860000D03*
X189290000Y-39320000D03*
%TD*%
M02*
