%TF.GenerationSoftware,KiCad,Pcbnew,9.0.4*%
%TF.CreationDate,2026-01-09T16:44:30-06:00*%
%TF.ProjectId,Keyboard,4b657962-6f61-4726-942e-6b696361645f,rev?*%
%TF.SameCoordinates,Original*%
%TF.FileFunction,Soldermask,Top*%
%TF.FilePolarity,Negative*%
%FSLAX46Y46*%
G04 Gerber Fmt 4.6, Leading zero omitted, Abs format (unit mm)*
G04 Created by KiCad (PCBNEW 9.0.4) date 2026-01-09 16:44:30*
%MOMM*%
%LPD*%
G01*
G04 APERTURE LIST*
%ADD10R,1.000000X1.000000*%
%ADD11C,3.987800*%
%ADD12C,3.200000*%
%ADD13R,1.700000X1.700000*%
%ADD14C,1.700000*%
%ADD15R,2.000000X2.000000*%
%ADD16C,1.400000*%
%ADD17C,1.750000*%
%ADD18C,3.300000*%
%ADD19C,0.650000*%
%ADD20O,1.000000X1.800000*%
%ADD21O,1.000000X2.100000*%
G04 APERTURE END LIST*
D10*
%TO.C,TP24*%
X279575000Y-37700000D03*
%TD*%
%TO.C,TP23*%
X279575000Y-35675000D03*
%TD*%
D11*
%TO.C,S4*%
X83187500Y-147905000D03*
X183200000Y-147905000D03*
%TD*%
D12*
%TO.C,H7*%
X250500000Y-45500000D03*
%TD*%
D13*
%TO.C,J2*%
X261880000Y-35500000D03*
D14*
X259340000Y-35500000D03*
X256800000Y-35500000D03*
X254260000Y-35500000D03*
%TD*%
D11*
%TO.C,S2*%
X256959100Y-71678800D03*
X280771600Y-71678800D03*
%TD*%
D12*
%TO.C,H2*%
X96000000Y-147500000D03*
%TD*%
D11*
%TO.C,S1*%
X254641350Y-109781850D03*
X278453850Y-109781850D03*
%TD*%
D12*
%TO.C,H1*%
X4250000Y-94750000D03*
%TD*%
%TO.C,H5*%
X21000000Y-53750000D03*
%TD*%
%TO.C,H4*%
X303500000Y-37000000D03*
%TD*%
D15*
%TO.C,VBUSTP1*%
X295700000Y-37925000D03*
%TD*%
D16*
%TO.C,OL1*%
X300400000Y-47020000D03*
X300400000Y-44480000D03*
X300400000Y-41940000D03*
X300400000Y-39400000D03*
%TD*%
D12*
%TO.C,H3*%
X154750000Y-54000000D03*
%TD*%
D13*
%TO.C,J3*%
X303120000Y-51500000D03*
D14*
X300580000Y-51500000D03*
X298040000Y-51500000D03*
X295500000Y-51500000D03*
%TD*%
D11*
%TO.C,S3*%
X11747500Y-128828800D03*
X35560000Y-128828800D03*
%TD*%
D12*
%TO.C,H6*%
X173500000Y-147500000D03*
%TD*%
D17*
%TO.C,MX29*%
X21592500Y-82500000D03*
D11*
X16512500Y-82500000D03*
D17*
X11432500Y-82500000D03*
D18*
X12702500Y-79960000D03*
X19052500Y-77420000D03*
%TD*%
D17*
%TO.C,MX55*%
X240667500Y-101550000D03*
D11*
X235587500Y-101550000D03*
D17*
X230507500Y-101550000D03*
D18*
X231777500Y-99010000D03*
X238127500Y-96470000D03*
%TD*%
D17*
%TO.C,MX79*%
X264480000Y-139650000D03*
D11*
X259400000Y-139650000D03*
D17*
X254320000Y-139650000D03*
D18*
X255590000Y-137110000D03*
X261940000Y-134570000D03*
%TD*%
D17*
%TO.C,MX74*%
X66836250Y-139650000D03*
D11*
X61756250Y-139650000D03*
D17*
X56676250Y-139650000D03*
D18*
X57946250Y-137110000D03*
X64296250Y-134570000D03*
%TD*%
D17*
%TO.C,MX34*%
X121605000Y-82500000D03*
D11*
X116525000Y-82500000D03*
D17*
X111445000Y-82500000D03*
D18*
X112715000Y-79960000D03*
X119065000Y-77420000D03*
%TD*%
D17*
%TO.C,MX19*%
X112080000Y-63450000D03*
D11*
X107000000Y-63450000D03*
D17*
X101920000Y-63450000D03*
D18*
X103190000Y-60910000D03*
X109540000Y-58370000D03*
%TD*%
D17*
%TO.C,MX62*%
X116842500Y-120600000D03*
D11*
X111762500Y-120600000D03*
D17*
X106682500Y-120600000D03*
D18*
X107952500Y-118060000D03*
X114302500Y-115520000D03*
%TD*%
D17*
%TO.C,MX16*%
X54930000Y-63450000D03*
D11*
X49850000Y-63450000D03*
D17*
X44770000Y-63450000D03*
D18*
X46040000Y-60910000D03*
X52390000Y-58370000D03*
%TD*%
D17*
%TO.C,MX40*%
X235905000Y-82500000D03*
D11*
X230825000Y-82500000D03*
D17*
X225745000Y-82500000D03*
D18*
X227015000Y-79960000D03*
X233365000Y-77420000D03*
%TD*%
D17*
%TO.C,MX58*%
X28736250Y-120600000D03*
D11*
X23656250Y-120600000D03*
D17*
X18576250Y-120600000D03*
D18*
X19846250Y-118060000D03*
X26196250Y-115520000D03*
%TD*%
D19*
%TO.C,J1*%
X291660000Y-39775000D03*
X297440000Y-39775000D03*
D20*
X290230000Y-36095000D03*
D21*
X290230000Y-40275000D03*
D20*
X298870000Y-36095000D03*
D21*
X298870000Y-40275000D03*
%TD*%
D17*
%TO.C,MX47*%
X88267500Y-101550000D03*
D11*
X83187500Y-101550000D03*
D17*
X78107500Y-101550000D03*
D18*
X79377500Y-99010000D03*
X85727500Y-96470000D03*
%TD*%
D17*
%TO.C,MX12*%
X226380000Y-44400000D03*
D11*
X221300000Y-44400000D03*
D17*
X216220000Y-44400000D03*
D18*
X217490000Y-41860000D03*
X223840000Y-39320000D03*
%TD*%
D17*
%TO.C,MX68*%
X231142500Y-120600000D03*
D11*
X226062500Y-120600000D03*
D17*
X220982500Y-120600000D03*
D18*
X222252500Y-118060000D03*
X228602500Y-115520000D03*
%TD*%
D17*
%TO.C,MX38*%
X197805000Y-82500000D03*
D11*
X192725000Y-82500000D03*
D17*
X187645000Y-82500000D03*
D18*
X188915000Y-79960000D03*
X195265000Y-77420000D03*
%TD*%
D17*
%TO.C,MX61*%
X97792500Y-120600000D03*
D11*
X92712500Y-120600000D03*
D17*
X87632500Y-120600000D03*
D18*
X88902500Y-118060000D03*
X95252500Y-115520000D03*
%TD*%
D17*
%TO.C,MX39*%
X216855000Y-82500000D03*
D11*
X211775000Y-82500000D03*
D17*
X206695000Y-82500000D03*
D18*
X207965000Y-79960000D03*
X214315000Y-77420000D03*
%TD*%
D17*
%TO.C,MX26*%
X245430000Y-63450000D03*
D11*
X240350000Y-63450000D03*
D17*
X235270000Y-63450000D03*
D18*
X236540000Y-60910000D03*
X242890000Y-58370000D03*
%TD*%
D17*
%TO.C,MX65*%
X173992500Y-120600000D03*
D11*
X168912500Y-120600000D03*
D17*
X163832500Y-120600000D03*
D18*
X165102500Y-118060000D03*
X171452500Y-115520000D03*
%TD*%
D17*
%TO.C,MX1*%
X16830000Y-44400000D03*
D11*
X11750000Y-44400000D03*
D17*
X6670000Y-44400000D03*
D18*
X7940000Y-41860000D03*
X14290000Y-39320000D03*
%TD*%
D17*
%TO.C,MX4*%
X73980000Y-44400000D03*
D11*
X68900000Y-44400000D03*
D17*
X63820000Y-44400000D03*
D18*
X65090000Y-41860000D03*
X71440000Y-39320000D03*
%TD*%
D17*
%TO.C,MX30*%
X45405000Y-82500000D03*
D11*
X40325000Y-82500000D03*
D17*
X35245000Y-82500000D03*
D18*
X36515000Y-79960000D03*
X42865000Y-77420000D03*
%TD*%
D17*
%TO.C,MX48*%
X107317500Y-101550000D03*
D11*
X102237500Y-101550000D03*
D17*
X97157500Y-101550000D03*
D18*
X98427500Y-99010000D03*
X104777500Y-96470000D03*
%TD*%
D17*
%TO.C,MX35*%
X140655000Y-82500000D03*
D11*
X135575000Y-82500000D03*
D17*
X130495000Y-82500000D03*
D18*
X131765000Y-79960000D03*
X138115000Y-77420000D03*
%TD*%
D17*
%TO.C,MX63*%
X135892500Y-120600000D03*
D11*
X130812500Y-120600000D03*
D17*
X125732500Y-120600000D03*
D18*
X127002500Y-118060000D03*
X133352500Y-115520000D03*
%TD*%
D17*
%TO.C,MX13*%
X245430000Y-44400000D03*
D11*
X240350000Y-44400000D03*
D17*
X235270000Y-44400000D03*
D18*
X236540000Y-41860000D03*
X242890000Y-39320000D03*
%TD*%
D17*
%TO.C,MX31*%
X64455000Y-82500000D03*
D11*
X59375000Y-82500000D03*
D17*
X54295000Y-82500000D03*
D18*
X55565000Y-79960000D03*
X61915000Y-77420000D03*
%TD*%
D17*
%TO.C,MX67*%
X212092500Y-120600000D03*
D11*
X207012500Y-120600000D03*
D17*
X201932500Y-120600000D03*
D18*
X203202500Y-118060000D03*
X209552500Y-115520000D03*
%TD*%
D17*
%TO.C,MX78*%
X245430000Y-139650000D03*
D11*
X240350000Y-139650000D03*
D17*
X235270000Y-139650000D03*
D18*
X236540000Y-137110000D03*
X242890000Y-134570000D03*
%TD*%
D17*
%TO.C,MX33*%
X102555000Y-82500000D03*
D11*
X97475000Y-82500000D03*
D17*
X92395000Y-82500000D03*
D18*
X93665000Y-79960000D03*
X100015000Y-77420000D03*
%TD*%
D17*
%TO.C,MX66*%
X193042500Y-120600000D03*
D11*
X187962500Y-120600000D03*
D17*
X182882500Y-120600000D03*
D18*
X184152500Y-118060000D03*
X190502500Y-115520000D03*
%TD*%
D17*
%TO.C,MX36*%
X159705000Y-82500000D03*
D11*
X154625000Y-82500000D03*
D17*
X149545000Y-82500000D03*
D18*
X150815000Y-79960000D03*
X157165000Y-77420000D03*
%TD*%
D17*
%TO.C,MX43*%
X302580000Y-82500000D03*
D11*
X297500000Y-82500000D03*
D17*
X292420000Y-82500000D03*
D18*
X293690000Y-79960000D03*
X300040000Y-77420000D03*
%TD*%
D17*
%TO.C,MX50*%
X145417500Y-101550000D03*
D11*
X140337500Y-101550000D03*
D17*
X135257500Y-101550000D03*
D18*
X136527500Y-99010000D03*
X142877500Y-96470000D03*
%TD*%
D17*
%TO.C,MX45*%
X50167500Y-101550000D03*
D11*
X45087500Y-101550000D03*
D17*
X40007500Y-101550000D03*
D18*
X41277500Y-99010000D03*
X47627500Y-96470000D03*
%TD*%
D17*
%TO.C,MX76*%
X207330000Y-139650000D03*
D11*
X202250000Y-139650000D03*
D17*
X197170000Y-139650000D03*
D18*
X198440000Y-137110000D03*
X204790000Y-134570000D03*
%TD*%
D17*
%TO.C,MX7*%
X131130000Y-44400000D03*
D11*
X126050000Y-44400000D03*
D17*
X120970000Y-44400000D03*
D18*
X122240000Y-41860000D03*
X128590000Y-39320000D03*
%TD*%
D17*
%TO.C,MX44*%
X23973750Y-101550000D03*
D11*
X18893750Y-101550000D03*
D17*
X13813750Y-101550000D03*
D18*
X15083750Y-99010000D03*
X21433750Y-96470000D03*
%TD*%
D17*
%TO.C,MX54*%
X221617500Y-101550000D03*
D11*
X216537500Y-101550000D03*
D17*
X211457500Y-101550000D03*
D18*
X212727500Y-99010000D03*
X219077500Y-96470000D03*
%TD*%
D17*
%TO.C,MX41*%
X254955000Y-82500000D03*
D11*
X249875000Y-82500000D03*
D17*
X244795000Y-82500000D03*
D18*
X246065000Y-79960000D03*
X252415000Y-77420000D03*
%TD*%
D17*
%TO.C,MX69*%
X257336250Y-120600000D03*
D11*
X252256250Y-120600000D03*
D17*
X247176250Y-120600000D03*
D18*
X248446250Y-118060000D03*
X254796250Y-115520000D03*
%TD*%
D17*
%TO.C,MX14*%
X16830000Y-63450000D03*
D11*
X11750000Y-63450000D03*
D17*
X6670000Y-63450000D03*
D18*
X7940000Y-60910000D03*
X14290000Y-58370000D03*
%TD*%
D17*
%TO.C,MX18*%
X93030000Y-63450000D03*
D11*
X87950000Y-63450000D03*
D17*
X82870000Y-63450000D03*
D18*
X84140000Y-60910000D03*
X90490000Y-58370000D03*
%TD*%
D17*
%TO.C,MX59*%
X59692500Y-120600000D03*
D11*
X54612500Y-120600000D03*
D17*
X49532500Y-120600000D03*
D18*
X50802500Y-118060000D03*
X57152500Y-115520000D03*
%TD*%
D17*
%TO.C,MX80*%
X283530000Y-139650000D03*
D11*
X278450000Y-139650000D03*
D17*
X273370000Y-139650000D03*
D18*
X274640000Y-137110000D03*
X280990000Y-134570000D03*
%TD*%
D17*
%TO.C,MX17*%
X73980000Y-63450000D03*
D11*
X68900000Y-63450000D03*
D17*
X63820000Y-63450000D03*
D18*
X65090000Y-60910000D03*
X71440000Y-58370000D03*
%TD*%
D17*
%TO.C,MX11*%
X207330000Y-44400000D03*
D11*
X202250000Y-44400000D03*
D17*
X197170000Y-44400000D03*
D18*
X198440000Y-41860000D03*
X204790000Y-39320000D03*
%TD*%
D17*
%TO.C,MX52*%
X183517500Y-101550000D03*
D11*
X178437500Y-101550000D03*
D17*
X173357500Y-101550000D03*
D18*
X174627500Y-99010000D03*
X180977500Y-96470000D03*
%TD*%
D17*
%TO.C,MX46*%
X69217500Y-101550000D03*
D11*
X64137500Y-101550000D03*
D17*
X59057500Y-101550000D03*
D18*
X60327500Y-99010000D03*
X66677500Y-96470000D03*
%TD*%
D17*
%TO.C,MX60*%
X78742500Y-120600000D03*
D11*
X73662500Y-120600000D03*
D17*
X68582500Y-120600000D03*
D18*
X69852500Y-118060000D03*
X76202500Y-115520000D03*
%TD*%
D17*
%TO.C,MX53*%
X202567500Y-101550000D03*
D11*
X197487500Y-101550000D03*
D17*
X192407500Y-101550000D03*
D18*
X193677500Y-99010000D03*
X200027500Y-96470000D03*
%TD*%
D17*
%TO.C,MX6*%
X112080000Y-44400000D03*
D11*
X107000000Y-44400000D03*
D17*
X101920000Y-44400000D03*
D18*
X103190000Y-41860000D03*
X109540000Y-39320000D03*
%TD*%
D17*
%TO.C,MX23*%
X188280000Y-63450000D03*
D11*
X183200000Y-63450000D03*
D17*
X178120000Y-63450000D03*
D18*
X179390000Y-60910000D03*
X185740000Y-58370000D03*
%TD*%
D17*
%TO.C,MX77*%
X226380000Y-139650000D03*
D11*
X221300000Y-139650000D03*
D17*
X216220000Y-139650000D03*
D18*
X217490000Y-137110000D03*
X223840000Y-134570000D03*
%TD*%
D17*
%TO.C,MX2*%
X35880000Y-44400000D03*
D11*
X30800000Y-44400000D03*
D17*
X25720000Y-44400000D03*
D18*
X26990000Y-41860000D03*
X33340000Y-39320000D03*
%TD*%
D17*
%TO.C,MX20*%
X131130000Y-63450000D03*
D11*
X126050000Y-63450000D03*
D17*
X120970000Y-63450000D03*
D18*
X122240000Y-60910000D03*
X128590000Y-58370000D03*
%TD*%
D17*
%TO.C,MX5*%
X93030000Y-44400000D03*
D11*
X87950000Y-44400000D03*
D17*
X82870000Y-44400000D03*
D18*
X84140000Y-41860000D03*
X90490000Y-39320000D03*
%TD*%
D17*
%TO.C,MX21*%
X150180000Y-63450000D03*
D11*
X145100000Y-63450000D03*
D17*
X140020000Y-63450000D03*
D18*
X141290000Y-60910000D03*
X147640000Y-58370000D03*
%TD*%
D17*
%TO.C,MX25*%
X226380000Y-63450000D03*
D11*
X221300000Y-63450000D03*
D17*
X216220000Y-63450000D03*
D18*
X217490000Y-60910000D03*
X223840000Y-58370000D03*
%TD*%
D17*
%TO.C,MX28*%
X302580000Y-63450000D03*
D11*
X297500000Y-63450000D03*
D17*
X292420000Y-63450000D03*
D18*
X293690000Y-60910000D03*
X300040000Y-58370000D03*
%TD*%
D17*
%TO.C,MX81*%
X302580000Y-139650000D03*
D11*
X297500000Y-139650000D03*
D17*
X292420000Y-139650000D03*
D18*
X293690000Y-137110000D03*
X300040000Y-134570000D03*
%TD*%
D17*
%TO.C,MX64*%
X154942500Y-120600000D03*
D11*
X149862500Y-120600000D03*
D17*
X144782500Y-120600000D03*
D18*
X146052500Y-118060000D03*
X152402500Y-115520000D03*
%TD*%
D17*
%TO.C,MX24*%
X207330000Y-63450000D03*
D11*
X202250000Y-63450000D03*
D17*
X197170000Y-63450000D03*
D18*
X198440000Y-60910000D03*
X204790000Y-58370000D03*
%TD*%
D17*
%TO.C,MX22*%
X169230000Y-63450000D03*
D11*
X164150000Y-63450000D03*
D17*
X159070000Y-63450000D03*
D18*
X160340000Y-60910000D03*
X166690000Y-58370000D03*
%TD*%
D17*
%TO.C,MX57*%
X302580000Y-101550000D03*
D11*
X297500000Y-101550000D03*
D17*
X292420000Y-101550000D03*
D18*
X293690000Y-99010000D03*
X300040000Y-96470000D03*
%TD*%
D17*
%TO.C,MX9*%
X169230000Y-44400000D03*
D11*
X164150000Y-44400000D03*
D17*
X159070000Y-44400000D03*
D18*
X160340000Y-41860000D03*
X166690000Y-39320000D03*
%TD*%
D17*
%TO.C,MX49*%
X126367500Y-101550000D03*
D11*
X121287500Y-101550000D03*
D17*
X116207500Y-101550000D03*
D18*
X117477500Y-99010000D03*
X123827500Y-96470000D03*
%TD*%
D17*
%TO.C,MX73*%
X43023750Y-139650000D03*
D11*
X37943750Y-139650000D03*
D17*
X32863750Y-139650000D03*
D18*
X34133750Y-137110000D03*
X40483750Y-134570000D03*
%TD*%
D17*
%TO.C,MX75*%
X138273750Y-139650000D03*
D11*
X133193750Y-139650000D03*
D17*
X128113750Y-139650000D03*
D18*
X129383750Y-137110000D03*
X135733750Y-134570000D03*
%TD*%
D17*
%TO.C,MX72*%
X19211250Y-139650000D03*
D11*
X14131250Y-139650000D03*
D17*
X9051250Y-139650000D03*
D18*
X10321250Y-137110000D03*
X16671250Y-134570000D03*
%TD*%
D17*
%TO.C,MX15*%
X35880000Y-63450000D03*
D11*
X30800000Y-63450000D03*
D17*
X25720000Y-63450000D03*
D18*
X26990000Y-60910000D03*
X33340000Y-58370000D03*
%TD*%
D17*
%TO.C,MX70*%
X283530000Y-120600000D03*
D11*
X278450000Y-120600000D03*
D17*
X273370000Y-120600000D03*
D18*
X274640000Y-118060000D03*
X280990000Y-115520000D03*
%TD*%
D17*
%TO.C,MX27*%
X274005000Y-63450000D03*
D11*
X268925000Y-63450000D03*
D17*
X263845000Y-63450000D03*
D18*
X265115000Y-60910000D03*
X271465000Y-58370000D03*
%TD*%
D17*
%TO.C,MX42*%
X278767500Y-82500000D03*
D11*
X273687500Y-82500000D03*
D17*
X268607500Y-82500000D03*
D18*
X269877500Y-79960000D03*
X276227500Y-77420000D03*
%TD*%
D17*
%TO.C,MX56*%
X271623750Y-101550000D03*
D11*
X266543750Y-101550000D03*
D17*
X261463750Y-101550000D03*
D18*
X262733750Y-99010000D03*
X269083750Y-96470000D03*
%TD*%
D17*
%TO.C,MX71*%
X302580000Y-120600000D03*
D11*
X297500000Y-120600000D03*
D17*
X292420000Y-120600000D03*
D18*
X293690000Y-118060000D03*
X300040000Y-115520000D03*
%TD*%
D17*
%TO.C,MX3*%
X54930000Y-44400000D03*
D11*
X49850000Y-44400000D03*
D17*
X44770000Y-44400000D03*
D18*
X46040000Y-41860000D03*
X52390000Y-39320000D03*
%TD*%
D17*
%TO.C,MX8*%
X150180000Y-44400000D03*
D11*
X145100000Y-44400000D03*
D17*
X140020000Y-44400000D03*
D18*
X141290000Y-41860000D03*
X147640000Y-39320000D03*
%TD*%
D17*
%TO.C,MX37*%
X178755000Y-82500000D03*
D11*
X173675000Y-82500000D03*
D17*
X168595000Y-82500000D03*
D18*
X169865000Y-79960000D03*
X176215000Y-77420000D03*
%TD*%
D17*
%TO.C,MX32*%
X83505000Y-82500000D03*
D11*
X78425000Y-82500000D03*
D17*
X73345000Y-82500000D03*
D18*
X74615000Y-79960000D03*
X80965000Y-77420000D03*
%TD*%
D17*
%TO.C,MX51*%
X164467500Y-101550000D03*
D11*
X159387500Y-101550000D03*
D17*
X154307500Y-101550000D03*
D18*
X155577500Y-99010000D03*
X161927500Y-96470000D03*
%TD*%
D17*
%TO.C,MX10*%
X188280000Y-44400000D03*
D11*
X183200000Y-44400000D03*
D17*
X178120000Y-44400000D03*
D18*
X179390000Y-41860000D03*
X185740000Y-39320000D03*
%TD*%
M02*
