M48
; DRILL file {KiCad 9.0.4} date 2026-01-09T16:44:38-0600
; FORMAT={-:-/ absolute / metric / decimal}
; #@! TF.CreationDate,2026-01-09T16:44:38-06:00
; #@! TF.GenerationSoftware,Kicad,Pcbnew,9.0.4
; #@! TF.FileFunction,NonPlated,1,2,NPTH
FMAT,2
METRIC
; #@! TA.AperFunction,NonPlated,NPTH,ComponentDrill
T1C0.650
; #@! TA.AperFunction,NonPlated,NPTH,ComponentDrill
T2C1.750
; #@! TA.AperFunction,NonPlated,NPTH,ComponentDrill
T3C3.200
; #@! TA.AperFunction,NonPlated,NPTH,ComponentDrill
T4C3.988
%
G90
G05
T1
X291.66Y-39.775
X297.44Y-39.775
T2
X6.67Y-44.4
X6.67Y-63.45
X9.051Y-139.65
X11.432Y-82.5
X13.814Y-101.55
X16.83Y-44.4
X16.83Y-63.45
X18.576Y-120.6
X19.211Y-139.65
X21.592Y-82.5
X23.974Y-101.55
X25.72Y-44.4
X25.72Y-63.45
X28.736Y-120.6
X32.864Y-139.65
X35.245Y-82.5
X35.88Y-44.4
X35.88Y-63.45
X40.008Y-101.55
X43.024Y-139.65
X44.77Y-44.4
X44.77Y-63.45
X45.405Y-82.5
X49.532Y-120.6
X50.167Y-101.55
X54.295Y-82.5
X54.93Y-44.4
X54.93Y-63.45
X56.676Y-139.65
X59.057Y-101.55
X59.692Y-120.6
X63.82Y-44.4
X63.82Y-63.45
X64.455Y-82.5
X66.836Y-139.65
X68.582Y-120.6
X69.218Y-101.55
X73.345Y-82.5
X73.98Y-44.4
X73.98Y-63.45
X78.108Y-101.55
X78.742Y-120.6
X82.87Y-44.4
X82.87Y-63.45
X83.505Y-82.5
X87.632Y-120.6
X88.267Y-101.55
X92.395Y-82.5
X93.03Y-44.4
X93.03Y-63.45
X97.157Y-101.55
X97.792Y-120.6
X101.92Y-44.4
X101.92Y-63.45
X102.555Y-82.5
X106.682Y-120.6
X107.317Y-101.55
X111.445Y-82.5
X112.08Y-44.4
X112.08Y-63.45
X116.207Y-101.55
X116.843Y-120.6
X120.97Y-44.4
X120.97Y-63.45
X121.605Y-82.5
X125.732Y-120.6
X126.367Y-101.55
X128.114Y-139.65
X130.495Y-82.5
X131.13Y-44.4
X131.13Y-63.45
X135.257Y-101.55
X135.892Y-120.6
X138.274Y-139.65
X140.02Y-44.4
X140.02Y-63.45
X140.655Y-82.5
X144.782Y-120.6
X145.417Y-101.55
X149.545Y-82.5
X150.18Y-44.4
X150.18Y-63.45
X154.308Y-101.55
X154.942Y-120.6
X159.07Y-44.4
X159.07Y-63.45
X159.705Y-82.5
X163.832Y-120.6
X164.468Y-101.55
X168.595Y-82.5
X169.23Y-44.4
X169.23Y-63.45
X173.357Y-101.55
X173.992Y-120.6
X178.12Y-44.4
X178.12Y-63.45
X178.755Y-82.5
X182.882Y-120.6
X183.517Y-101.55
X187.645Y-82.5
X188.28Y-44.4
X188.28Y-63.45
X192.407Y-101.55
X193.042Y-120.6
X197.17Y-44.4
X197.17Y-63.45
X197.17Y-139.65
X197.805Y-82.5
X201.933Y-120.6
X202.567Y-101.55
X206.695Y-82.5
X207.33Y-44.4
X207.33Y-63.45
X207.33Y-139.65
X211.457Y-101.55
X212.093Y-120.6
X216.22Y-44.4
X216.22Y-63.45
X216.22Y-139.65
X216.855Y-82.5
X220.982Y-120.6
X221.617Y-101.55
X225.745Y-82.5
X226.38Y-44.4
X226.38Y-63.45
X226.38Y-139.65
X230.507Y-101.55
X231.142Y-120.6
X235.27Y-44.4
X235.27Y-63.45
X235.27Y-139.65
X235.905Y-82.5
X240.667Y-101.55
X244.795Y-82.5
X245.43Y-44.4
X245.43Y-63.45
X245.43Y-139.65
X247.176Y-120.6
X254.32Y-139.65
X254.955Y-82.5
X257.336Y-120.6
X261.464Y-101.55
X263.845Y-63.45
X264.48Y-139.65
X268.608Y-82.5
X271.624Y-101.55
X273.37Y-120.6
X273.37Y-139.65
X274.005Y-63.45
X278.767Y-82.5
X283.53Y-120.6
X283.53Y-139.65
X292.42Y-63.45
X292.42Y-82.5
X292.42Y-101.55
X292.42Y-120.6
X292.42Y-139.65
X302.58Y-63.45
X302.58Y-82.5
X302.58Y-101.55
X302.58Y-120.6
X302.58Y-139.65
T3
X4.25Y-94.75
X21.0Y-53.75
X96.0Y-147.5
X154.75Y-54.0
X173.5Y-147.5
X250.5Y-45.5
X303.5Y-37.0
T4
X11.747Y-128.829
X11.75Y-44.4
X11.75Y-63.45
X14.131Y-139.65
X16.512Y-82.5
X18.894Y-101.55
X23.656Y-120.6
X30.8Y-44.4
X30.8Y-63.45
X35.56Y-128.829
X37.944Y-139.65
X40.325Y-82.5
X45.087Y-101.55
X49.85Y-44.4
X49.85Y-63.45
X54.612Y-120.6
X59.375Y-82.5
X61.756Y-139.65
X64.138Y-101.55
X68.9Y-44.4
X68.9Y-63.45
X73.662Y-120.6
X78.425Y-82.5
X83.188Y-101.55
X83.188Y-147.905
X87.95Y-44.4
X87.95Y-63.45
X92.712Y-120.6
X97.475Y-82.5
X102.237Y-101.55
X107.0Y-44.4
X107.0Y-63.45
X111.762Y-120.6
X116.525Y-82.5
X121.287Y-101.55
X126.05Y-44.4
X126.05Y-63.45
X130.812Y-120.6
X133.194Y-139.65
X135.575Y-82.5
X140.338Y-101.55
X145.1Y-44.4
X145.1Y-63.45
X149.862Y-120.6
X154.625Y-82.5
X159.387Y-101.55
X164.15Y-44.4
X164.15Y-63.45
X168.912Y-120.6
X173.675Y-82.5
X178.438Y-101.55
X183.2Y-44.4
X183.2Y-63.45
X183.2Y-147.905
X187.963Y-120.6
X192.725Y-82.5
X197.487Y-101.55
X202.25Y-44.4
X202.25Y-63.45
X202.25Y-139.65
X207.012Y-120.6
X211.775Y-82.5
X216.537Y-101.55
X221.3Y-44.4
X221.3Y-63.45
X221.3Y-139.65
X226.062Y-120.6
X230.825Y-82.5
X235.587Y-101.55
X240.35Y-44.4
X240.35Y-63.45
X240.35Y-139.65
X249.875Y-82.5
X252.256Y-120.6
X254.641Y-109.782
X256.959Y-71.679
X259.4Y-139.65
X266.544Y-101.55
X268.925Y-63.45
X273.688Y-82.5
X278.45Y-120.6
X278.45Y-139.65
X278.454Y-109.782
X280.772Y-71.679
X297.5Y-63.45
X297.5Y-82.5
X297.5Y-101.55
X297.5Y-120.6
X297.5Y-139.65
M30
